<?xml version="1.0" encoding="UTF-8"?>
<svg version="1.1" xmlns="http://www.w3.org/2000/svg" width="733" height="492">
<path d="M0 0 C241.89 0 483.78 0 733 0 C733 162.36 733 324.72 733 492 C491.11 492 249.22 492 0 492 C0 329.64 0 167.28 0 0 Z " fill="#FEFEFE" transform="translate(0,0)"/>
<path d="M0 0 C39.6 0 79.2 0 120 0 C120 162.36 120 324.72 120 492 C80.4 492 40.8 492 0 492 C0 329.64 0 167.28 0 0 Z " fill="#FDFDFE" transform="translate(613,0)"/>
<path d="M0 0 C38.28 0 76.56 0 116 0 C116.061875 14.169375 116.12375 28.33875 116.1875 42.9375 C116.21481201 47.39757568 116.24212402 51.85765137 116.27026367 56.45288086 C116.28381348 61.93469238 116.28381348 61.93469238 116.28633118 64.50782776 C116.29091248 66.28995516 116.30141059 68.07207376 116.31672668 69.85414124 C116.33885915 72.56690414 116.34171229 75.27910298 116.34057617 77.99194336 C116.3513705 78.77460792 116.36216482 79.55727247 116.37328625 80.36365414 C116.32928617 88.27352412 114.38825885 95.61568687 108.82000732 101.44264221 C100.96671311 108.16260907 92.6692227 108.70022417 82.79198456 108.59158516 C80.43664437 108.56588545 78.08302981 108.57105016 75.7276001 108.58348083 C70.73487097 108.60408691 65.7426926 108.58460432 60.75 108.5625 C54.94546985 108.54133591 49.14150119 108.53687104 43.33698273 108.56300163 C41.02452082 108.56634815 38.71315065 108.54520202 36.40081787 108.52259827 C34.97782152 108.52511018 33.55482649 108.52867087 32.13183594 108.53344727 C30.27845612 108.5241494 30.27845612 108.5241494 28.38763428 108.5146637 C23.44364485 109.22297438 20.29127683 111.42480606 17.15234375 115.25390625 C15.65030155 118.83334918 15.52350531 122.11956513 15.5625 125.9375 C15.54251953 126.62779297 15.52253906 127.31808594 15.50195312 128.02929688 C15.50683038 133.17479959 16.6850112 136.10701316 20 140 C24.0522746 143.02546722 27.01261484 143.36911425 32.01831055 143.35302734 C33.04869698 143.35626762 33.04869698 143.35626762 34.09989929 143.35957336 C35.58563479 143.3626512 37.07139593 143.35908148 38.55710411 143.34955978 C40.91707574 143.33575999 43.27621204 143.34229606 45.63618469 143.35440063 C52.34369446 143.38526693 59.05100848 143.38057692 65.75854492 143.36035156 C69.86887278 143.34936901 73.97857451 143.36276435 78.08881569 143.39024734 C79.64634633 143.39565168 81.20394102 143.39171742 82.7614193 143.37784958 C92.62881518 143.29105063 101.21492609 143.73933691 108.89823914 150.72616577 C116.33605514 158.39144356 116.43128874 167.30229306 116.36076355 177.41418457 C116.36207318 178.77402537 116.36470251 180.13386542 116.36853105 181.49370146 C116.37521703 185.21544076 116.36326958 188.93691948 116.34819686 192.6586256 C116.33521338 196.6776088 116.33962759 200.6965779 116.34190369 204.71557617 C116.34347496 211.6737871 116.33408102 218.63191348 116.31719017 225.59010315 C116.29278494 235.65040144 116.28499334 245.71065895 116.2812262 255.77098364 C116.27466411 272.09409038 116.25470951 288.41715208 116.22631836 304.74023438 C116.19877153 320.59439875 116.177541 336.44855089 116.16479492 352.30273438 C116.16400675 353.28036714 116.16321858 354.2579999 116.16240653 355.26525789 C116.15849135 360.16986811 116.15470024 365.07447842 116.15097082 369.97908878 C116.11988244 410.65276586 116.06458341 451.32635961 116 492 C77.72 492 39.44 492 0 492 C0 329.64 0 167.28 0 0 Z " fill="#8167A7" transform="translate(0,0)"/>
<path d="M0 0 C1.70344322 -0.01691895 1.70344322 -0.01691895 3.44129944 -0.03417969 C4.68298386 -0.02608276 5.92466827 -0.01798584 7.20397949 -0.00964355 C9.17031593 -0.02015747 9.17031593 -0.02015747 11.17637634 -0.03088379 C14.76941917 -0.04911594 18.36200249 -0.04205044 21.95505333 -0.02936745 C25.71549084 -0.01923905 29.47588906 -0.02863267 33.23632812 -0.03491211 C39.55130069 -0.04218901 45.86608612 -0.03259981 52.18103027 -0.0135498 C59.4816012 0.00821919 66.7817253 0.00116784 74.0822854 -0.02085543 C80.35078077 -0.03900832 86.61914163 -0.04156835 92.88765478 -0.03110075 C96.63140023 -0.02486514 100.37493566 -0.02403183 104.1186676 -0.0372467 C108.29190528 -0.05094874 112.46437286 -0.03195748 116.63757324 -0.00964355 C118.50009987 -0.02178894 118.50009987 -0.02178894 120.4002533 -0.03417969 C121.53588211 -0.02290039 122.67151093 -0.01162109 123.84155273 0 C124.82820671 0.0015081 125.81486069 0.0030162 126.83141327 0.00457001 C130.15712469 0.65107852 131.34974596 1.87757787 133.42077637 4.50793457 C133.92248535 7.20935059 133.92248535 7.20935059 133.91687012 10.26184082 C133.91751465 11.36334473 133.91815918 12.46484863 133.91882324 13.59973145 C133.89884277 14.74506348 133.8788623 15.89039551 133.85827637 17.07043457 C133.86536621 18.21963379 133.87245605 19.36883301 133.87976074 20.55285645 C133.81573813 28.95951779 133.81573813 28.95951779 132.24187469 31.14487648 C129.72131667 33.03146709 128.01205176 32.88535474 124.87915039 32.8888855 C123.72662277 32.89734497 122.57409515 32.90580444 121.38664246 32.91452026 C120.12109024 32.90844757 118.85553802 32.90237488 117.55163574 32.89611816 C116.20631992 32.90018294 114.86100744 32.90552429 113.51570129 32.91204834 C109.86075233 32.92573914 106.20605706 32.92041616 102.55110359 32.91091108 C98.72880487 32.90332356 94.90652808 32.91035757 91.08422852 32.91506958 C84.66495864 32.92052979 78.24579226 32.9133286 71.82653809 32.89904785 C64.40163615 32.88272076 56.97698134 32.88800909 49.5520854 32.90452707 C43.18088396 32.91813442 36.80975698 32.9200653 30.4385457 32.91221106 C26.63169332 32.90753038 22.82495714 32.90692044 19.01811218 32.91682053 C15.4393626 32.92547708 11.86093208 32.9194927 8.28221703 32.90213776 C6.33978592 32.89626884 4.39732788 32.90519966 2.45491028 32.91452026 C1.30238266 32.90606079 0.14985504 32.89760132 -1.03759766 32.8888855 C-2.54303257 32.88718888 -2.54303257 32.88718888 -4.07888031 32.88545799 C-6.57922363 32.50793457 -6.57922363 32.50793457 -8.40032196 31.14487648 C-11.1257473 27.36053801 -10.04431689 21.54305014 -10.01672363 17.07043457 C-10.04669434 15.35243652 -10.04669434 15.35243652 -10.07727051 13.59973145 C-10.07662598 12.49822754 -10.07598145 11.39672363 -10.07531738 10.26184082 C-10.07717041 9.25451904 -10.07902344 8.24719727 -10.08093262 7.20935059 C-9.02041044 1.49904503 -5.40874392 0.00826728 0 0 Z " fill="#CBF1DF" transform="translate(206.5792236328125,342.4920654296875)"/>
<path d="M0 0 C1.14548813 -0.00983414 2.29097626 -0.01966827 3.47117615 -0.02980042 C5.35008545 -0.01529846 5.35008545 -0.01529846 7.26695251 -0.00050354 C8.6025652 -0.0042875 9.93817396 -0.00978819 11.27377319 -0.01687622 C14.89775605 -0.03083706 18.52126449 -0.0196577 22.14522099 -0.00316501 C25.93681414 0.0106839 29.72837971 0.00422571 33.51998901 0.0007019 C39.88624216 -0.00200003 46.25230674 0.0114749 52.61851501 0.03465271 C59.98153185 0.06127388 67.34423364 0.06300593 74.70728213 0.05126435 C81.78838007 0.04049091 88.86936392 0.04666944 95.9504528 0.06081963 C98.96516551 0.06658209 101.9797948 0.06649476 104.99450874 0.06175423 C108.54292217 0.05698706 112.0909899 0.06707475 115.63933754 0.08870888 C117.56504793 0.09694085 119.49080357 0.09042087 121.41651917 0.08351135 C122.55918747 0.09341599 123.70185577 0.10332062 124.87915039 0.11352539 C126.37157556 0.11717023 126.37157556 0.11717023 127.89415073 0.12088871 C130.37608337 0.50120544 130.37608337 0.50120544 132.19339657 1.85795498 C134.99975341 5.75716749 133.88596967 11.89419305 133.87608337 16.50120544 C133.90444275 17.70261169 133.93280212 18.90401794 133.96202087 20.14183044 C133.964599 21.29167419 133.96717712 22.44151794 133.96983337 23.62620544 C133.97692322 24.68065857 133.98401306 25.73511169 133.99131775 26.82151794 C133.37608337 29.50120544 133.37608337 29.50120544 131.18630981 31.14487648 C128.10241888 32.633287 126.19974344 32.87815713 122.79722595 32.88215637 C121.13175217 32.89484558 121.13175217 32.89484558 119.43263245 32.90779114 C118.22416656 32.90171844 117.01570068 32.89564575 115.77061462 32.88938904 C114.49044464 32.894646 113.21027466 32.89990295 111.89131165 32.90531921 C108.38716454 32.91897496 104.88328295 32.91370152 101.37913132 32.90418196 C97.70859319 32.89657627 94.03807749 32.90363349 90.36753845 32.90834045 C84.20400418 32.91379537 78.04057782 32.90661338 71.87705994 32.89231873 C64.75548435 32.87599265 57.63416643 32.88128135 50.51259708 32.89779794 C44.3935504 32.91142038 38.2745812 32.91332878 32.15552425 32.90548193 C28.50289627 32.90080956 24.85038933 32.9001685 21.19776917 32.9100914 C17.12554206 32.92038186 13.05375784 32.90611136 8.98155212 32.88938904 C7.1688533 32.89849808 7.1688533 32.89849808 5.3195343 32.90779114 C4.20921844 32.89933167 3.09890259 32.89087219 1.9549408 32.88215637 C0.99263046 32.8810253 0.03032013 32.87989422 -0.96115112 32.87872887 C-4.43093647 32.38678722 -7.13006236 30.99505971 -9.62391663 28.50120544 C-9.9326055 24.57170249 -9.90235206 20.62884009 -9.93641663 16.68870544 C-9.96542053 15.58204529 -9.99442444 14.47538513 -10.02430725 13.33518982 C-10.03268616 12.26977966 -10.04106506 11.20436951 -10.04969788 10.10667419 C-10.0642804 9.12851746 -10.07886292 8.15036072 -10.09388733 7.14256287 C-9.0771017 1.4279635 -5.36532357 0.00112815 0 0 Z " fill="#FEF8EA" transform="translate(207.62391662597656,385.49879455566406)"/>
<path d="M0 0 C1.16238693 -0.00701431 2.32477386 -0.01402863 3.52238464 -0.02125549 C4.79885864 -0.01361176 6.07533264 -0.00596802 7.39048767 0.00190735 C8.7472766 -0.00052039 10.10406375 -0.00423955 11.46084595 -0.00915527 C15.14673078 -0.01856953 18.83235033 -0.009135 22.51821446 0.00417686 C26.37167104 0.01548122 30.22511437 0.01138469 34.07858276 0.00942993 C40.5491317 0.00854674 47.01957592 0.01963345 53.49009705 0.03804016 C60.97746175 0.05921714 68.46467312 0.06271593 75.95206171 0.0564782 C83.14793685 0.05078965 90.34375784 0.0564236 97.53962517 0.06765175 C100.60538672 0.07230359 103.67111522 0.07316908 106.73687935 0.0710659 C110.34429927 0.06918646 113.95156243 0.07726016 117.55894661 0.0931263 C119.51945635 0.09941347 121.47998984 0.09585528 123.44050598 0.09205627 C125.17985664 0.10268349 125.17985664 0.10268349 126.9543457 0.11352539 C127.96626512 0.11557826 128.97818453 0.11763113 130.02076817 0.11974621 C132.41368103 0.3742218 132.41368103 0.3742218 134.41368103 2.3742218 C134.87332793 6.66875387 134.73767882 10.99544998 134.72618103 15.3117218 C134.74229431 16.51763977 134.75840759 17.72355774 134.77500916 18.96601868 C134.77565369 20.12037415 134.77629822 21.27472961 134.77696228 22.46406555 C134.77994324 23.52488342 134.78292419 24.58570129 134.78599548 25.67866516 C134.41368103 28.3742218 134.41368103 28.3742218 133.23396969 30.01846409 C130.72434906 31.8876388 129.03122745 31.75429559 125.91674805 31.76190186 C124.77407974 31.77180649 123.63141144 31.78171112 122.45411682 31.79191589 C120.57217117 31.78516342 120.57217117 31.78516342 118.65220642 31.77827454 C117.31836372 31.78397641 115.9845259 31.79093996 114.6506958 31.79907227 C111.02668335 31.81703986 107.40291256 31.81582856 103.77886891 31.81012988 C100.75443314 31.80704303 97.73004412 31.81312489 94.70561498 31.81916863 C87.57091072 31.83322422 80.43632616 31.83164418 73.30162048 31.82026672 C65.93916949 31.80878558 58.57708276 31.82285848 51.21467978 31.8496632 C44.89526236 31.8718099 38.57595938 31.8784599 32.25650591 31.87258679 C28.48143223 31.86921335 24.70659205 31.87165753 20.93155098 31.88883781 C17.3814561 31.90428863 13.83190131 31.90037293 10.28182793 31.88153267 C8.35746807 31.87608071 6.43308407 31.89037529 4.5087738 31.90522766 C3.36328568 31.89539352 2.21779755 31.88555939 1.03759766 31.87542725 C0.04227052 31.87521796 -0.95305662 31.87500868 -1.97854519 31.87479305 C-5.31739522 31.23388917 -6.50734717 30.01247532 -8.58631897 27.3742218 C-9.08802795 24.76460266 -9.08802795 24.76460266 -9.08241272 21.83906555 C-9.08305725 20.78267883 -9.08370178 19.72629211 -9.08436584 18.63789368 C-9.06438538 17.54025696 -9.04440491 16.44262024 -9.02381897 15.3117218 C-9.03090881 14.2102179 -9.03799866 13.10871399 -9.04530334 11.97383118 C-8.98136303 3.9222698 -8.98136303 3.9222698 -7.41021061 1.74259663 C-4.87711028 -0.15786207 -3.15066719 -0.00052208 0 0 Z " fill="#FEECE7" transform="translate(206.58631896972656,295.6257781982422)"/>
<path d="M0 0 C1.16238693 -0.00701431 2.32477386 -0.01402863 3.52238464 -0.02125549 C4.79885864 -0.01361176 6.07533264 -0.00596802 7.39048767 0.00190735 C8.7472766 -0.00052039 10.10406375 -0.00423955 11.46084595 -0.00915527 C15.14673078 -0.01856953 18.83235033 -0.009135 22.51821446 0.00417686 C26.37167104 0.01548122 30.22511437 0.01138469 34.07858276 0.00942993 C40.5491317 0.00854674 47.01957592 0.01963345 53.49009705 0.03804016 C60.97746175 0.05921714 68.46467312 0.06271593 75.95206171 0.0564782 C83.14793685 0.05078965 90.34375784 0.0564236 97.53962517 0.06765175 C100.60538672 0.07230359 103.67111522 0.07316908 106.73687935 0.0710659 C110.34429927 0.06918646 113.95156243 0.07726016 117.55894661 0.0931263 C119.51945635 0.09941347 121.47998984 0.09585528 123.44050598 0.09205627 C125.17985664 0.10268349 125.17985664 0.10268349 126.9543457 0.11352539 C127.96626512 0.11557826 128.97818453 0.11763113 130.02076817 0.11974621 C132.41368103 0.3742218 132.41368103 0.3742218 134.41368103 2.3742218 C134.87332793 6.66875387 134.73767882 10.99544998 134.72618103 15.3117218 C134.74229431 16.51763977 134.75840759 17.72355774 134.77500916 18.96601868 C134.77565369 20.12037415 134.77629822 21.27472961 134.77696228 22.46406555 C134.77994324 23.52488342 134.78292419 24.58570129 134.78599548 25.67866516 C134.41368103 28.3742218 134.41368103 28.3742218 133.23396969 30.01846409 C130.72434906 31.8876388 129.03122745 31.75429559 125.91674805 31.76190186 C124.77407974 31.77180649 123.63141144 31.78171112 122.45411682 31.79191589 C120.57217117 31.78516342 120.57217117 31.78516342 118.65220642 31.77827454 C117.31836372 31.78397641 115.9845259 31.79093996 114.6506958 31.79907227 C111.02668335 31.81703986 107.40291256 31.81582856 103.77886891 31.81012988 C100.75443314 31.80704303 97.73004412 31.81312489 94.70561498 31.81916863 C87.57091072 31.83322422 80.43632616 31.83164418 73.30162048 31.82026672 C65.93916949 31.80878558 58.57708276 31.82285848 51.21467978 31.8496632 C44.89526236 31.8718099 38.57595938 31.8784599 32.25650591 31.87258679 C28.48143223 31.86921335 24.70659205 31.87165753 20.93155098 31.88883781 C17.3814561 31.90428863 13.83190131 31.90037293 10.28182793 31.88153267 C8.35746807 31.87608071 6.43308407 31.89037529 4.5087738 31.90522766 C3.36328568 31.89539352 2.21779755 31.88555939 1.03759766 31.87542725 C0.04227052 31.87521796 -0.95305662 31.87500868 -1.97854519 31.87479305 C-5.31739522 31.23388917 -6.50734717 30.01247532 -8.58631897 27.3742218 C-9.08802795 24.76460266 -9.08802795 24.76460266 -9.08241272 21.83906555 C-9.08305725 20.78267883 -9.08370178 19.72629211 -9.08436584 18.63789368 C-9.06438538 17.54025696 -9.04440491 16.44262024 -9.02381897 15.3117218 C-9.03090881 14.2102179 -9.03799866 13.10871399 -9.04530334 11.97383118 C-8.98136303 3.9222698 -8.98136303 3.9222698 -7.41021061 1.74259663 C-4.87711028 -0.15786207 -3.15066719 -0.00052208 0 0 Z " fill="#FEEBE6" transform="translate(206.58631896972656,247.6257781982422)"/>
<path d="M0 0 C1.16238693 -0.00701431 2.32477386 -0.01402863 3.52238464 -0.02125549 C4.79885864 -0.01361176 6.07533264 -0.00596802 7.39048767 0.00190735 C8.7472766 -0.00052039 10.10406375 -0.00423955 11.46084595 -0.00915527 C15.14673078 -0.01856953 18.83235033 -0.009135 22.51821446 0.00417686 C26.37167104 0.01548122 30.22511437 0.01138469 34.07858276 0.00942993 C40.5491317 0.00854674 47.01957592 0.01963345 53.49009705 0.03804016 C60.97746175 0.05921714 68.46467312 0.06271593 75.95206171 0.0564782 C83.14793685 0.05078965 90.34375784 0.0564236 97.53962517 0.06765175 C100.60538672 0.07230359 103.67111522 0.07316908 106.73687935 0.0710659 C110.34429927 0.06918646 113.95156243 0.07726016 117.55894661 0.0931263 C119.51945635 0.09941347 121.47998984 0.09585528 123.44050598 0.09205627 C125.17985664 0.10268349 125.17985664 0.10268349 126.9543457 0.11352539 C127.96626512 0.11557826 128.97818453 0.11763113 130.02076817 0.11974621 C132.41368103 0.3742218 132.41368103 0.3742218 134.41368103 2.3742218 C134.87332793 6.66875387 134.73767882 10.99544998 134.72618103 15.3117218 C134.74229431 16.51763977 134.75840759 17.72355774 134.77500916 18.96601868 C134.77565369 20.12037415 134.77629822 21.27472961 134.77696228 22.46406555 C134.77994324 23.52488342 134.78292419 24.58570129 134.78599548 25.67866516 C134.41368103 28.3742218 134.41368103 28.3742218 133.23396969 30.01846409 C130.72434906 31.8876388 129.03122745 31.75429559 125.91674805 31.76190186 C124.77407974 31.77180649 123.63141144 31.78171112 122.45411682 31.79191589 C120.57217117 31.78516342 120.57217117 31.78516342 118.65220642 31.77827454 C117.31836372 31.78397641 115.9845259 31.79093996 114.6506958 31.79907227 C111.02668335 31.81703986 107.40291256 31.81582856 103.77886891 31.81012988 C100.75443314 31.80704303 97.73004412 31.81312489 94.70561498 31.81916863 C87.57091072 31.83322422 80.43632616 31.83164418 73.30162048 31.82026672 C65.93916949 31.80878558 58.57708276 31.82285848 51.21467978 31.8496632 C44.89526236 31.8718099 38.57595938 31.8784599 32.25650591 31.87258679 C28.48143223 31.86921335 24.70659205 31.87165753 20.93155098 31.88883781 C17.3814561 31.90428863 13.83190131 31.90037293 10.28182793 31.88153267 C8.35746807 31.87608071 6.43308407 31.89037529 4.5087738 31.90522766 C3.36328568 31.89539352 2.21779755 31.88555939 1.03759766 31.87542725 C0.04227052 31.87521796 -0.95305662 31.87500868 -1.97854519 31.87479305 C-5.31739522 31.23388917 -6.50734717 30.01247532 -8.58631897 27.3742218 C-9.08802795 24.76460266 -9.08802795 24.76460266 -9.08241272 21.83906555 C-9.08305725 20.78267883 -9.08370178 19.72629211 -9.08436584 18.63789368 C-9.06438538 17.54025696 -9.04440491 16.44262024 -9.02381897 15.3117218 C-9.03090881 14.2102179 -9.03799866 13.10871399 -9.04530334 11.97383118 C-8.98136303 3.9222698 -8.98136303 3.9222698 -7.41021061 1.74259663 C-4.87711028 -0.15786207 -3.15066719 -0.00052208 0 0 Z " fill="#E5E6F2" transform="translate(206.58631896972656,201.6257781982422)"/>
<path d="M0 0 C1.70344322 -0.01691895 1.70344322 -0.01691895 3.44129944 -0.03417969 C4.68298386 -0.02608276 5.92466827 -0.01798584 7.20397949 -0.00964355 C9.17031593 -0.02015747 9.17031593 -0.02015747 11.17637634 -0.03088379 C14.76941917 -0.04911594 18.36200249 -0.04205044 21.95505333 -0.02936745 C25.71549084 -0.01923905 29.47588906 -0.02863267 33.23632812 -0.03491211 C39.55130069 -0.04218901 45.86608612 -0.03259981 52.18103027 -0.0135498 C59.4816012 0.00821919 66.7817253 0.00116784 74.0822854 -0.02085543 C80.35078077 -0.03900832 86.61914163 -0.04156835 92.88765478 -0.03110075 C96.63140023 -0.02486514 100.37493566 -0.02403183 104.1186676 -0.0372467 C108.29190528 -0.05094874 112.46437286 -0.03195748 116.63757324 -0.00964355 C118.50009987 -0.02178894 118.50009987 -0.02178894 120.4002533 -0.03417969 C121.53588211 -0.02290039 122.67151093 -0.01162109 123.84155273 0 C124.82820671 0.0015081 125.81486069 0.0030162 126.83141327 0.00457001 C130.15510071 0.65068506 131.34796257 1.88238045 133.42077637 4.50793457 C133.92248535 7.11755371 133.92248535 7.11755371 133.91687012 10.04309082 C133.91751465 11.09947754 133.91815918 12.15586426 133.91882324 13.2442627 C133.89884277 14.34189941 133.8788623 15.43953613 133.85827637 16.57043457 C133.86536621 17.67193848 133.87245605 18.77344238 133.87976074 19.9083252 C133.81580887 27.96134205 133.81580887 27.96134205 132.24187469 30.13913918 C129.72176864 32.033331 128.01598449 31.88535031 124.87915039 31.8888855 C123.72662277 31.89734497 122.57409515 31.90580444 121.38664246 31.91452026 C120.12109024 31.90844757 118.85553802 31.90237488 117.55163574 31.89611816 C116.20631992 31.90018294 114.86100744 31.90552429 113.51570129 31.91204834 C109.86075233 31.92573914 106.20605706 31.92041616 102.55110359 31.91091108 C98.72880487 31.90332356 94.90652808 31.91035757 91.08422852 31.91506958 C84.66495864 31.92052979 78.24579226 31.9133286 71.82653809 31.89904785 C64.40163615 31.88272076 56.97698134 31.88800909 49.5520854 31.90452707 C43.18088396 31.91813442 36.80975698 31.9200653 30.4385457 31.91221106 C26.63169332 31.90753038 22.82495714 31.90692044 19.01811218 31.91682053 C15.4393626 31.92547708 11.86093208 31.9194927 8.28221703 31.90213776 C6.33978592 31.89626884 4.39732788 31.90519966 2.45491028 31.91452026 C1.30238266 31.90606079 0.14985504 31.89760132 -1.03759766 31.8888855 C-2.54303257 31.88718888 -2.54303257 31.88718888 -4.07888031 31.88545799 C-6.57922363 31.50793457 -6.57922363 31.50793457 -8.40032196 30.13913918 C-11.06385048 26.45370884 -10.04480168 20.93274167 -10.01672363 16.57043457 C-10.0367041 15.47279785 -10.05668457 14.37516113 -10.07727051 13.2442627 C-10.07662598 12.18787598 -10.07598145 11.13148926 -10.07531738 10.04309082 C-10.07717041 9.07766357 -10.07902344 8.11223633 -10.08093262 7.11755371 C-8.99407906 1.46432855 -5.34367834 0.00816782 0 0 Z " fill="#E9F9FD" transform="translate(206.5792236328125,434.4920654296875)"/>
<path d="M0 0 C5.54132011 3.3057206 10.09084343 8.06605869 12.54296875 14.09375 C13.29252179 20.99547867 13.1068597 27.07200323 9.54296875 33.09375 C4.70029359 38.55728095 0.8764722 41.69249968 -6.41015625 42.3671875 C-13.81895139 42.59542053 -18.84575491 42.16468121 -24.45703125 37.09375 C-30.09855653 31.00684115 -30.87377418 26.4513332 -30.69140625 18.28125 C-30.10791773 10.34580606 -26.37175183 6.6667921 -20.61328125 1.6953125 C-15.15043885 -2.36223349 -6.2315538 -2.29844274 0 0 Z " fill="#8167A7" transform="translate(458.45703125,178.90625)"/>
<path d="M0 0 C1.41194847 -0.00082961 2.82389684 -0.00329248 4.23583984 -0.00730896 C7.18812294 -0.01016032 10.1396446 0.00446745 13.09179688 0.03198242 C16.86476083 0.06606566 20.63636419 0.06004159 24.40939331 0.04131985 C27.32294943 0.03072098 30.23619221 0.0397135 33.14971924 0.05470467 C34.54029407 0.05986588 35.9309019 0.05942981 37.32147217 0.05315971 C50.96833566 0.01471824 50.96833566 0.01471824 55.625 4.62890625 C56.96194342 8.3251616 56.97821281 9.87202166 55.3125 13.44140625 C53.625 15.62890625 53.625 15.62890625 51.625 16.62890625 C49.49188587 16.74122016 47.35523427 16.78826064 45.21923828 16.8059082 C44.5621286 16.8124794 43.90501892 16.8190506 43.22799683 16.82582092 C41.05043426 16.84555407 38.87294062 16.85721578 36.6953125 16.8671875 C35.58023127 16.87330079 35.58023127 16.87330079 34.44262314 16.87953758 C30.50878934 16.90039732 26.57499043 16.91470003 22.64111328 16.92407227 C18.57656167 16.93514319 14.51255657 16.96955048 10.44819832 17.00924397 C7.32379126 17.0353777 4.19951514 17.04376111 1.07500839 17.04735374 C-0.42332785 17.05222732 -1.92165794 17.06386334 -3.41988754 17.08239174 C-5.5171834 17.10671863 -7.61305573 17.10583128 -9.71044922 17.09887695 C-10.90354706 17.10474319 -12.0966449 17.11060944 -13.32589722 17.11665344 C-16.98572452 16.53121221 -18.12928355 15.51400041 -20.375 12.62890625 C-21.56853531 9.59916277 -21.44044301 8.82523527 -20.375 5.62890625 C-14.92016101 -1.04625603 -8.05664079 -0.08558504 0 0 Z " fill="#F8F8F9" transform="translate(310.375,115.37109375)"/>
<path d="M0 0 C3.22728284 1.75118674 5.07494454 3.12608869 7.12890625 6.20703125 C7.12890625 7.52703125 7.12890625 8.84703125 7.12890625 10.20703125 C7.78890625 10.20703125 8.44890625 10.20703125 9.12890625 10.20703125 C8.55545688 13.07427811 8.26745475 14.06848275 6.12890625 16.20703125 C5.72843181 18.52978302 5.38919585 20.86442482 5.12890625 23.20703125 C6.11890625 22.87703125 7.10890625 22.54703125 8.12890625 22.20703125 C6.81953727 25.12793128 5.37271163 26.96322587 3.12890625 29.20703125 C2.79890625 30.19703125 2.46890625 31.18703125 2.12890625 32.20703125 C-1.06645474 34.62130399 -3.8645607 36.59064155 -7.87109375 37.20703125 C-7.87109375 36.54703125 -7.87109375 35.88703125 -7.87109375 35.20703125 C-8.53109375 35.20703125 -9.19109375 35.20703125 -9.87109375 35.20703125 C-9.54109375 36.52703125 -9.21109375 37.84703125 -8.87109375 39.20703125 C-8.25234375 39.04203125 -7.63359375 38.87703125 -6.99609375 38.70703125 C-4.87109375 38.20703125 -4.87109375 38.20703125 -2.87109375 38.20703125 C-1.35894399 36.7536239 -1.35894399 36.7536239 0.12890625 34.89453125 C0.64453125 34.27964844 1.16015625 33.66476563 1.69140625 33.03125 C2.91352221 31.48035828 4.03362511 29.84995296 5.12890625 28.20703125 C5.45890625 28.82578125 5.78890625 29.44453125 6.12890625 30.08203125 C9.08499213 33.2228725 11.93811484 33.38261327 16.12890625 34.20703125 C16.12890625 36.51953125 16.12890625 36.51953125 15.12890625 39.20703125 C12.36701309 40.53865831 10.04547354 41.40660112 7.12890625 42.20703125 C6.49082031 42.41328125 5.85273437 42.61953125 5.1953125 42.83203125 C-0.00047474 44.29049784 -5.19630254 44.44447407 -10.55859375 44.51953125 C-11.28361084 44.53717529 -12.00862793 44.55481934 -12.75561523 44.57299805 C-17.527543 44.56697358 -20.67793717 43.7097184 -24.87109375 41.20703125 C-24.87109375 40.54703125 -24.87109375 39.88703125 -24.87109375 39.20703125 C-20.91109375 37.88703125 -16.95109375 36.56703125 -12.87109375 35.20703125 C-13.95842827 30.08102564 -15.09746867 25.14784397 -16.87109375 20.20703125 C-15.88109375 20.53703125 -14.89109375 20.86703125 -13.87109375 21.20703125 C-13.87109375 21.86703125 -13.87109375 22.52703125 -13.87109375 23.20703125 C-12.22109375 22.87703125 -10.57109375 22.54703125 -8.87109375 22.20703125 C-8.54109375 20.22703125 -8.21109375 18.24703125 -7.87109375 16.20703125 C-9.52109375 15.87703125 -11.17109375 15.54703125 -12.87109375 15.20703125 C-13.20109375 15.86703125 -13.53109375 16.52703125 -13.87109375 17.20703125 C-15.44903048 13.06494733 -16.44997551 9.64512477 -15.87109375 5.20703125 C-11.86204346 0.05253802 -6.40913581 -2.71618908 0 0 Z " fill="#8269A7" transform="translate(675.87109375,43.79296875)"/>
<path d="M0 0 C0.9583374 0.00523682 1.9166748 0.01047363 2.90405273 0.01586914 C4.45576172 0.02070312 4.45576172 0.02070312 6.03881836 0.02563477 C7.12743164 0.03401367 8.21604492 0.04239258 9.33764648 0.05102539 C10.97636719 0.05779297 10.97636719 0.05779297 12.64819336 0.06469727 C15.35723144 0.07652713 18.06616248 0.09300996 20.77514648 0.11352539 C21.94940912 2.46205067 21.89022821 3.85126604 21.87280273 6.46508789 C21.86958008 7.31586914 21.86635742 8.16665039 21.86303711 9.04321289 C21.8546582 9.93266602 21.8462793 10.82211914 21.83764648 11.73852539 C21.83313477 12.63571289 21.82862305 13.53290039 21.82397461 14.45727539 C21.81217239 16.67609187 21.79570804 18.89477558 21.77514648 21.11352539 C19.28518983 22.35850372 17.58519737 22.24286911 14.80249023 22.24633789 C13.33005859 22.24827148 13.33005859 22.24827148 11.82788086 22.25024414 C10.79985352 22.24637695 9.77182617 22.24250977 8.71264648 22.23852539 C7.68075195 22.24239258 6.64885742 22.24625977 5.58569336 22.25024414 C4.60536133 22.24895508 3.6250293 22.24766602 2.61499023 22.24633789 C1.71127686 22.24520996 0.80756348 22.24408203 -0.12353516 22.24291992 C-2.22485352 22.11352539 -2.22485352 22.11352539 -3.22485352 21.11352539 C-3.32366149 19.63699875 -3.35564597 18.15585303 -3.35766602 16.67602539 C-3.35895508 15.78141602 -3.36024414 14.88680664 -3.36157227 13.96508789 C-3.35577148 12.55356445 -3.35577148 12.55356445 -3.34985352 11.11352539 C-3.3537207 10.17250977 -3.35758789 9.23149414 -3.36157227 8.26196289 C-3.3602832 7.36735352 -3.35899414 6.47274414 -3.35766602 5.55102539 C-3.35597412 4.3115918 -3.35597412 4.3115918 -3.35424805 3.04711914 C-3.16628576 0.23832416 -2.8131674 0.1435447 0 0 Z " fill="#866EAB" transform="translate(580.224853515625,41.886474609375)"/>
<path d="M0 0 C0 3.3 0 6.6 0 10 C-1.32 10.33 -2.64 10.66 -4 11 C-2.50164772 15.66154042 0.88463591 16.86610751 5 19 C3.7934375 19.8971875 3.7934375 19.8971875 2.5625 20.8125 C-0.22327984 22.80947276 -0.22327984 22.80947276 -1 26 C-6.66666667 30 -6.66666667 30 -11 30 C-14.75483935 28.74838688 -17.67122278 27.15391467 -21 25 C-22.41634833 22.16730334 -22.3463005 19.52533562 -22.5625 16.375 C-22.64628906 15.18648437 -22.73007812 13.99796875 -22.81640625 12.7734375 C-22.90728516 11.40058594 -22.90728516 11.40058594 -23 10 C-7.74418605 0 -7.74418605 0 0 0 Z " fill="#324F59" transform="translate(707,192)"/>
<path d="M0 0 C4.0259839 2.12693489 6.31214609 3.78421878 8 8 C8.69608513 12.52455337 8.61383227 15.9696387 6.25 19.9375 C2.88448377 23.02255654 1.15945644 23.89459487 -3.4375 24.3125 C-7.33342459 23.97075223 -8.98430969 23.4451543 -12 21 C-14.49072981 17.97073401 -15.85317422 15.88095466 -16.5 12 C-15.6943808 7.16628481 -13.45601098 4.18054945 -9.6875 1.125 C-6.16108808 -0.35117243 -3.79611 -0.46618895 0 0 Z " fill="#F0F2FA" transform="translate(536,189)"/>
<path d="M0 0 C3.70390021 2.02666238 5.65363011 3.48044516 8 7 C8.69920885 11.79689791 8.71482085 15.77459282 6.25 20 C2.86332689 23.0103761 1.13189161 23.89710076 -3.4375 24.3125 C-8.72431343 23.84874444 -10.90131036 22.24325407 -14.375 18.3125 C-16.16638723 14.66082604 -16.41102238 12.87196041 -15.68359375 8.96484375 C-14.48372881 5.5160891 -12.60922585 3.54710143 -10 1 C-6.38069302 -0.20643566 -3.80768995 -0.32268559 0 0 Z " fill="#F0F2F9" transform="translate(503,189)"/>
<path d="M0 0 C3.50496338 0.48906466 4.98929884 2.14898404 7.6875 4.375 C10.37257329 5.16446609 10.37257329 5.16446609 12.6875 5.375 C12.6875 6.695 12.6875 8.015 12.6875 9.375 C11.264375 9.7153125 11.264375 9.7153125 9.8125 10.0625 C6.49426612 11.06583714 6.49426612 11.06583714 5.3125 14 C5.003125 15.175625 5.003125 15.175625 4.6875 16.375 C3.3675 16.375 2.0475 16.375 0.6875 16.375 C0.6875 15.715 0.6875 15.055 0.6875 14.375 C-0.6325 14.705 -1.9525 15.035 -3.3125 15.375 C-2.9825 16.695 -2.6525 18.015 -2.3125 19.375 C-0.6625 19.375 0.9875 19.375 2.6875 19.375 C2.6875 21.355 2.6875 23.335 2.6875 25.375 C-4.30610519 26.30748069 -11.25464105 26.76455715 -18.3125 26.375 C-19.3125 25.375 -19.3125 25.375 -19.375 22.8125 C-19.354375 22.008125 -19.33375 21.20375 -19.3125 20.375 C-17.70375 20.2821875 -17.70375 20.2821875 -16.0625 20.1875 C-12.28058656 19.67539286 -12.28058656 19.67539286 -9.875 17.3125 C-7.77375141 13.36215265 -8.01201004 10.80722695 -8.3125 6.375 C-7.6525 6.375 -6.9925 6.375 -6.3125 6.375 C-5.879375 5.446875 -5.879375 5.446875 -5.4375 4.5 C-3.97803825 1.74323892 -3.14786208 0.51046412 0 0 Z " fill="#9A6A5E" transform="translate(705.3125,143.625)"/>
<path d="M0 0 C2.5 0.375 2.5 0.375 4.375 1.5 C6.06519103 4.31698505 5.1486162 6.19088409 4.5 9.375 C4.5 12.345 4.5 15.315 4.5 18.375 C-2.1 18.375 -8.7 18.375 -15.5 18.375 C-15.59765625 8.31640625 -15.59765625 8.31640625 -15.5 5.375 C-13.61692557 3.49192557 -10.28608313 4.00996931 -7.7265625 3.8515625 C-4.29813995 3.11775978 -3.47855414 0.52178312 0 0 Z " fill="#A996C1" transform="translate(33.5,274.625)"/>
<path d="M0 0 C0.79792969 0.00386719 1.59585938 0.00773437 2.41796875 0.01171875 C3.21589844 0.00785156 4.01382813 0.00398438 4.8359375 0 C10.79136108 0.01011108 10.79136108 0.01011108 11.91796875 1.13671875 C11.95889812 3.46969308 11.96038598 5.803771 11.91796875 8.13671875 C11.25796875 8.13671875 10.59796875 8.13671875 9.91796875 8.13671875 C10.10359375 9.06484375 10.28921875 9.99296875 10.48046875 10.94921875 C10.91796875 14.13671875 10.91796875 14.13671875 9.91796875 17.13671875 C8.26796875 17.13671875 6.61796875 17.13671875 4.91796875 17.13671875 C4.91796875 16.14671875 4.91796875 15.15671875 4.91796875 14.13671875 C4.25796875 14.13671875 3.59796875 14.13671875 2.91796875 14.13671875 C2.91796875 14.79671875 2.91796875 15.45671875 2.91796875 16.13671875 C-0.71203125 16.13671875 -4.34203125 16.13671875 -8.08203125 16.13671875 C-7.94178906 13.65711739 -7.79511275 11.17819473 -7.64453125 8.69921875 C-7.60521484 7.99216797 -7.56589844 7.28511719 -7.52539062 6.55664062 C-7.11208195 -0.08809117 -6.632851 0.01126121 0 0 Z " fill="#EBE9E6" transform="translate(35.08203125,116.86328125)"/>
<path d="M0 0 C0.495 0.61875 0.99 1.2375 1.5 1.875 C4.88221437 4.74988222 7.67257085 5.13451417 12 6 C12 8.3125 12 8.3125 11 11 C8.23810684 12.33162706 5.91656729 13.19956987 3 14 C2.36191406 14.20625 1.72382812 14.4125 1.06640625 14.625 C-4.12938099 16.08346659 -9.32520879 16.23744282 -14.6875 16.3125 C-15.77502563 16.33896606 -15.77502563 16.33896606 -16.88452148 16.3659668 C-21.65644925 16.35994233 -24.80684342 15.50268715 -29 13 C-29 12.34 -29 11.68 -29 11 C-24 9.33333333 -19 7.66666667 -14 6 C-13.67 7.65 -13.34 9.3 -13 11 C-12.38125 10.835 -11.7625 10.67 -11.125 10.5 C-9 10 -9 10 -7 10 C-5.45205061 8.54943623 -5.45205061 8.54943623 -3.9375 6.6875 C-3.41027344 6.07261719 -2.88304687 5.45773438 -2.33984375 4.82421875 C-0.80729997 2.93309283 -0.80729997 2.93309283 0 0 Z " fill="#4E3866" transform="translate(680,72)"/>
<path d="M0 0 C5.94 0 11.88 0 18 0 C18 4.95 18 9.9 18 15 C12.06 15 6.12 15 0 15 C0 10.05 0 5.1 0 0 Z " fill="#E0D9E6" transform="translate(19,171)"/>
<path d="M0 0 C1.5675 -0.0825 3.135 -0.165 4.75 -0.25 C5.63171875 -0.29640625 6.5134375 -0.3428125 7.421875 -0.390625 C10 0 10 0 12.3125 1.53125 C14.61057296 4.89324563 14.44239336 7.83553519 14.25 11.75 C14.23195313 12.44738281 14.21390625 13.14476562 14.1953125 13.86328125 C14.14838554 15.57611539 14.07664605 17.28823824 14 19 C9.38 19 4.76 19 0 19 C0 12.73 0 6.46 0 0 Z " fill="#DFD7E5" transform="translate(21,223)"/>
<path d="M0 0 C0 3.3 0 6.6 0 10 C-1.32 10.33 -2.64 10.66 -4 11 C-3.67 12.32 -3.34 13.64 -3 15 C-3.86625 15.103125 -4.7325 15.20625 -5.625 15.3125 C-9.16683123 16.03398414 -11.84312042 17.27123261 -15 19 C-15.144375 17.88625 -15.28875 16.7725 -15.4375 15.625 C-15.78372035 12.17857953 -15.78372035 12.17857953 -17 10 C-17.66 13.96 -18.32 17.92 -19 22 C-19.66 22 -20.32 22 -21 22 C-21.16947579 20.58366664 -21.33545507 19.16691467 -21.5 17.75 C-21.5928125 16.96109375 -21.685625 16.1721875 -21.78125 15.359375 C-22 13 -22 13 -22 9 C-19.79799468 7.67578036 -17.58938174 6.36573271 -15.375 5.0625 C-14.75753906 4.68931641 -14.14007812 4.31613281 -13.50390625 3.93164062 C-9.06909186 1.34077538 -5.22780936 0 0 0 Z " fill="#8C859A" transform="translate(707,192)"/>
<path d="M0 0 C2.25414782 3.38122173 2.24544447 4.6064728 2.1875 8.5625 C2.18105469 9.53316406 2.17460938 10.50382812 2.16796875 11.50390625 C2 14 2 14 1 16 C-6.42857143 16.14285714 -6.42857143 16.14285714 -10 15 C-9.814375 14.236875 -9.62875 13.47375 -9.4375 12.6875 C-8.77180827 9.91032625 -8.77180827 9.91032625 -10 7 C-11.65 7.33 -13.3 7.66 -15 8 C-15.04241723 5.66705225 -15.04092937 3.33297433 -15 1 C-11.97030896 -2.02969104 -3.6898074 -1.34174814 0 0 Z " fill="#F6C7B4" transform="translate(678,50)"/>
<path d="M0 0 C3.22728284 1.75118674 5.07494454 3.12608869 7.12890625 6.20703125 C7.12890625 7.52703125 7.12890625 8.84703125 7.12890625 10.20703125 C7.78890625 10.20703125 8.44890625 10.20703125 9.12890625 10.20703125 C8.55545688 13.07427811 8.26745475 14.06848275 6.12890625 16.20703125 C5.88677752 18.18831633 5.88677752 18.18831633 6.00390625 20.33203125 C6.04515625 21.61078125 6.08640625 22.88953125 6.12890625 24.20703125 C3.48890625 23.87703125 0.84890625 23.54703125 -1.87109375 23.20703125 C-1.87109375 22.87703125 -1.87109375 22.54703125 -1.87109375 22.20703125 C-0.22109375 22.20703125 1.42890625 22.20703125 3.12890625 22.20703125 C3.15592033 20.10293486 3.17530848 17.99873947 3.19140625 15.89453125 C3.20300781 14.72277344 3.21460938 13.55101562 3.2265625 12.34375 C3.27790523 9.1764393 3.27790523 9.1764393 2.12890625 6.20703125 C-2.49109375 6.53703125 -7.11109375 6.86703125 -11.87109375 7.20703125 C-11.87109375 9.18703125 -11.87109375 11.16703125 -11.87109375 13.20703125 C-10.55109375 13.20703125 -9.23109375 13.20703125 -7.87109375 13.20703125 C-6.74609375 14.95703125 -6.74609375 14.95703125 -5.87109375 17.20703125 C-6.74609375 19.45703125 -6.74609375 19.45703125 -7.87109375 21.20703125 C-6.55109375 21.53703125 -5.23109375 21.86703125 -3.87109375 22.20703125 C-5.52109375 22.20703125 -7.17109375 22.20703125 -8.87109375 22.20703125 C-8.54109375 20.22703125 -8.21109375 18.24703125 -7.87109375 16.20703125 C-9.52109375 15.87703125 -11.17109375 15.54703125 -12.87109375 15.20703125 C-13.20109375 15.86703125 -13.53109375 16.52703125 -13.87109375 17.20703125 C-15.44903048 13.06494733 -16.44997551 9.64512477 -15.87109375 5.20703125 C-11.86204346 0.05253802 -6.40913581 -2.71618908 0 0 Z " fill="#8D74A9" transform="translate(675.87109375,43.79296875)"/>
<path d="M0 0 C4.95 0 9.9 0 15 0 C15 4.62 15 9.24 15 14 C10.05 14 5.1 14 0 14 C0 9.38 0 4.76 0 0 Z " fill="#FE7F7F" transform="translate(507,380)"/>
<path d="M0 0 C4.95 0 9.9 0 15 0 C15 4.62 15 9.24 15 14 C10.05 14 5.1 14 0 14 C0 9.38 0 4.76 0 0 Z " fill="#FE7D7D" transform="translate(478,380)"/>
<path d="M0 0 C4.62 0 9.24 0 14 0 C14 4.95 14 9.9 14 15 C9.38 15 4.76 15 0 15 C0 10.05 0 5.1 0 0 Z " fill="#FE7B7B" transform="translate(391,358)"/>
<path d="M0 0 C4.93731454 1.46290801 4.93731454 1.46290801 6.375 4 C7.02588557 8.39347757 6.84938867 10.30998011 4.3125 14 C1.375 16 1.375 16 -2.25 16 C-7.18731454 14.53709199 -7.18731454 14.53709199 -8.625 12 C-9.27588557 7.60652243 -9.09938867 5.69001989 -6.5625 2 C-3.625 0 -3.625 0 0 0 Z " fill="#FFE8B4" transform="translate(213.625,395)"/>
<path d="M0 0 C3.375 1.0625 3.375 1.0625 5.3125 2.75 C6.7363395 5.8489448 6.92653827 7.68432812 6.375 11.0625 C4.3125 14 4.3125 14 1.375 16.0625 C-2.47710127 16.12891554 -4.62348005 15.93479157 -7.5625 13.375 C-8.9863395 10.2760552 -9.17653827 8.44067188 -8.625 5.0625 C-5.92665364 1.21940065 -4.75860157 0.08204485 0 0 Z " fill="#C1EFFC" transform="translate(213.625,443.9375)"/>
<path d="M0 0 C2.4375 1.5625 2.4375 1.5625 4 4 C4.56288002 7.94016013 4.60396028 10.05782196 2.4375 13.4375 C-0.94217804 15.60396028 -3.05983987 15.56288002 -7 15 C-9.4375 13.4375 -9.4375 13.4375 -11 11 C-11.56288002 7.05983987 -11.60396028 4.94217804 -9.4375 1.5625 C-6.05782196 -0.60396028 -3.94016013 -0.56288002 0 0 Z " fill="#A8E1C5" transform="translate(216,353)"/>
<path d="M0 0 C2.4375 1.5625 2.4375 1.5625 4 4 C4.56288002 7.94016013 4.60396028 10.05782196 2.4375 13.4375 C-0.94217804 15.60396028 -3.05983987 15.56288002 -7 15 C-9.4375 13.4375 -9.4375 13.4375 -11 11 C-11.56288002 7.05983987 -11.60396028 4.94217804 -9.4375 1.5625 C-6.05782196 -0.60396028 -3.94016013 -0.56288002 0 0 Z " fill="#FFCABD" transform="translate(216,305)"/>
<path d="M0 0 C2.4375 1.5625 2.4375 1.5625 4 4 C4.56288002 7.94016013 4.60396028 10.05782196 2.4375 13.4375 C-0.94217804 15.60396028 -3.05983987 15.56288002 -7 15 C-9.4375 13.4375 -9.4375 13.4375 -11 11 C-11.56288002 7.05983987 -11.60396028 4.94217804 -9.4375 1.5625 C-6.05782196 -0.60396028 -3.94016013 -0.56288002 0 0 Z " fill="#FFCABD" transform="translate(216,257)"/>
<path d="M0 0 C2.4375 1.5625 2.4375 1.5625 4 4 C4.56288002 7.94016013 4.60396028 10.05782196 2.4375 13.4375 C-0.94217804 15.60396028 -3.05983987 15.56288002 -7 15 C-9.4375 13.4375 -9.4375 13.4375 -11 11 C-11.56288002 7.05983987 -11.60396028 4.94217804 -9.4375 1.5625 C-6.05782196 -0.60396028 -3.94016013 -0.56288002 0 0 Z " fill="#BABDDB" transform="translate(216,211)"/>
<path d="M0 0 C0.33 0.66 0.66 1.32 1 2 C2.65204456 2.70211894 4.31923769 3.36971413 6 4 C7 5 7 5 7.11352539 6.85766602 C7.10828857 7.64842529 7.10305176 8.43918457 7.09765625 9.25390625 C7.09443359 10.10791016 7.09121094 10.96191406 7.08789062 11.84179688 C7.07951172 12.73962891 7.07113281 13.63746094 7.0625 14.5625 C7.05798828 15.46419922 7.05347656 16.36589844 7.04882812 17.29492188 C7.03700225 19.53001314 7.0205222 21.76497437 7 24 C6.67 23.01 6.34 22.02 6 21 C4.35 21.33 2.7 21.66 1 22 C1.33 20.68 1.66 19.36 2 18 C1.34 18 0.68 18 0 18 C0 19.65 0 21.3 0 23 C-0.33 22.01 -0.66 21.02 -1 20 C-1.66 20 -2.32 20 -3 20 C-3 20.99 -3 21.98 -3 23 C-4.32 23 -5.64 23 -7 23 C-7.33 21.68 -7.66 20.36 -8 19 C-6.68 18.67 -5.36 18.34 -4 18 C-4.33 17.01 -4.66 16.02 -5 15 C-3.35 13.68 -1.7 12.36 0 11 C-0.66 10.01 -1.32 9.02 -2 8 C-2.37569856 4.24301443 -2.1642235 3.24633524 0 0 Z " fill="#ECEDED" transform="translate(710,200)"/>
<path d="M0 0 C3.50496338 0.48906466 4.98929884 2.14898404 7.6875 4.375 C10.37257329 5.16446609 10.37257329 5.16446609 12.6875 5.375 C12.6875 6.695 12.6875 8.015 12.6875 9.375 C11.264375 9.7153125 11.264375 9.7153125 9.8125 10.0625 C6.49426612 11.06583714 6.49426612 11.06583714 5.3125 14 C5.10625 14.78375 4.9 15.5675 4.6875 16.375 C3.3675 16.375 2.0475 16.375 0.6875 16.375 C0.6875 15.715 0.6875 15.055 0.6875 14.375 C0.0275 14.045 -0.6325 13.715 -1.3125 13.375 C-1.9375 10.3125 -1.9375 10.3125 -2.3125 7.375 C-3.6325 7.045 -4.9525 6.715 -6.3125 6.375 C-3.61074561 0.58552632 -3.61074561 0.58552632 0 0 Z " fill="#F4DF87" transform="translate(705.3125,143.625)"/>
<path d="M0 0 C1.5778125 1.4540625 1.5778125 1.4540625 3.1875 2.9375 C6.03161212 5.3621774 8.09965473 7.10834292 12 7 C13.02104551 6.02149805 14.0206121 5.02019573 15 4 C17.6875 3.8125 17.6875 3.8125 20 4 C20 6.64 20 9.28 20 12 C13.4 12 6.8 12 0 12 C0 8.04 0 4.08 0 0 Z " fill="#F4F0F2" transform="translate(18,281)"/>
<path d="M0 0 C2.12508244 3.18762365 2.5020163 5.26512223 3 9 C4.093125 8.319375 5.18625 7.63875 6.3125 6.9375 C8.17578125 5.77734375 8.17578125 5.77734375 10 5 C10.99 5.33 11.98 5.66 13 6 C13.33 7.65 13.66 9.3 14 11 C13.01 11.495 13.01 11.495 12 12 C11.34 11.01 10.68 10.02 10 9 C7.48916886 10.25541557 7.12874554 11.50063488 6 14 C5.34 14 4.68 14 4 14 C4 14.66 4 15.32 4 16 C2.35 16.66 0.7 17.32 -1 18 C-3 16.625 -3 16.625 -5 14 C-5.35791096 10.6419531 -5.23115823 7.36463643 -5 4 C-4.67 4 -4.34 4 -4 4 C-4 6.97 -4 9.94 -4 13 C-3.34 13 -2.68 13 -2 13 C-1.93941406 12.14535156 -1.87882813 11.29070312 -1.81640625 10.41015625 C-1.69072266 8.75306641 -1.69072266 8.75306641 -1.5625 7.0625 C-1.48128906 5.96035156 -1.40007813 4.85820312 -1.31640625 3.72265625 C-1 1 -1 1 0 0 Z " fill="#354B54" transform="translate(690,201)"/>
<path d="M0 0 C0.66 0.33 1.32 0.66 2 1 C2.3227506 5.62609198 1.84450614 8.28026121 -1 12 C-1.66 12 -2.32 12 -3 12 C-3 13.65 -3 15.3 -3 17 C-5.64 17 -8.28 17 -11 17 C-10.67 15.68 -10.34 14.36 -10 13 C-8.35 12.67 -6.7 12.34 -5 12 C-5.350625 11.319375 -5.70125 10.63875 -6.0625 9.9375 C-7.23956177 6.24937313 -6.86351092 3.74188064 -6 0 C-3.4832097 -1.25839515 -2.62168527 -0.81927665 0 0 Z " fill="#F3EFF2" transform="translate(27,463)"/>
<path d="M0 0 C0.33 0.99 0.66 1.98 1 3 C-0.0725 2.896875 -1.145 2.79375 -2.25 2.6875 C-4.10625 2.8421875 -4.10625 2.8421875 -6 3 C-6.86625 4.2684375 -6.86625 4.2684375 -7.75 5.5625 C-10 8 -10 8 -12.6875 8.109375 C-15.48411949 7.83827413 -18.23235226 7.48195245 -21 7 C-21.33 7.66 -21.66 8.32 -22 9 C-22.33 8.01 -22.66 7.02 -23 6 C-22.34 6 -21.68 6 -21 6 C-21 4.35 -21 2.7 -21 1 C-15.46153846 0.63076923 -15.46153846 0.63076923 -13.125 2.5 C-12.75375 2.995 -12.3825 3.49 -12 4 C-11.4225 3.195625 -10.845 2.39125 -10.25 1.5625 C-8 -1 -8 -1 -6 -1.9375 C-3.4218628 -2.01806679 -2.11501475 -1.45863086 0 0 Z " fill="#ECECEE" transform="translate(709,142)"/>
<path d="M0 0 C0 3.3 0 6.6 0 10 C-6.0546875 13.22265625 -6.0546875 13.22265625 -8 14 C-8.66 13.67 -9.32 13.34 -10 13 C-9.01 11.68 -8.02 10.36 -7 9 C-6.34 9.33 -5.68 9.66 -5 10 C-5 9.34 -5 8.68 -5 8 C-6.98 8 -8.96 8 -11 8 C-11 9.65 -11 11.3 -11 13 C-11.33 13 -11.66 13 -12 13 C-12.1875 9.625 -12.1875 9.625 -12 6 C-9 4 -9 4 -6 4 C-6.33 3.01 -6.66 2.02 -7 1 C-2.25 0 -2.25 0 0 0 Z " fill="#485163" transform="translate(707,192)"/>
<path d="M0 0 C3.3 0 6.6 0 10 0 C10 0.66 10 1.32 10 2 C9.34 2 8.68 2 8 2 C8.27617533 3.94074861 8.27617533 3.94074861 9 6 C9.99 6.66 10.98 7.32 12 8 C10.68 8 9.36 8 8 8 C7.67 8.66 7.34 9.32 7 10 C4.03 9.505 4.03 9.505 1 9 C0.67 9.66 0.34 10.32 0 11 C0 7.37 0 3.74 0 0 Z " fill="#F9F6F6" transform="translate(21,223)"/>
<path d="M0 0 C5.94 0 11.88 0 18 0 C17.01 0.66 16.02 1.32 15 2 C15.33 2.33 15.66 2.66 16 3 C16.04080783 4.99958364 16.04254356 7.00045254 16 9 C15.34 9 14.68 9 14 9 C13.34 7.68 12.68 6.36 12 5 C8.37 5 4.74 5 1 5 C0.67 3.35 0.34 1.7 0 0 Z " fill="#CEC3DA" transform="translate(19,171)"/>
<path d="M0 0 C1.58206057 0.00667536 3.16410534 0.0186375 4.74609375 0.03515625 C5.55240234 0.03966797 6.35871094 0.04417969 7.18945312 0.04882812 C9.18753131 0.06065107 11.18557158 0.07858711 13.18359375 0.09765625 C13.51359375 1.74765625 13.84359375 3.39765625 14.18359375 5.09765625 C13.52359375 5.09765625 12.86359375 5.09765625 12.18359375 5.09765625 C12.18359375 4.10765625 12.18359375 3.11765625 12.18359375 2.09765625 C6.90359375 2.09765625 1.62359375 2.09765625 -3.81640625 2.09765625 C-3.81640625 5.39765625 -3.81640625 8.69765625 -3.81640625 12.09765625 C-1.17640625 12.09765625 1.46359375 12.09765625 4.18359375 12.09765625 C4.18359375 13.08765625 4.18359375 14.07765625 4.18359375 15.09765625 C0.88359375 15.09765625 -2.41640625 15.09765625 -5.81640625 15.09765625 C-5.67614342 12.78481169 -5.52905067 10.47238034 -5.37890625 8.16015625 C-5.29769531 6.87238281 -5.21648438 5.58460937 -5.1328125 4.2578125 C-4.71859406 0.12074192 -4.71859406 0.12074192 0 0 Z " fill="#655443" transform="translate(32.81640625,116.90234375)"/>
<path d="M0 0 C4.29 0 8.58 0 13 0 C13 1.32 13 2.64 13 4 C13.66 4 14.32 4 15 4 C15 2.68 15 1.36 15 0 C16.65 0 18.3 0 20 0 C20 1.65 20 3.3 20 5 C17.36 5 14.72 5 12 5 C12 3.68 12 2.36 12 1 C11.34 1 10.68 1 10 1 C9.67 2.32 9.34 3.64 9 5 C5.66666667 5 2.33333333 5 -1 5 C-0.67 3.35 -0.34 1.7 0 0 Z " fill="#838383" transform="translate(476,304)"/>
<path d="M0 0 C0.99 0 1.98 0 3 0 C3 4.62 3 9.24 3 14 C-2.94 14 -8.88 14 -15 14 C-15 12.02 -15 10.04 -15 8 C-12.36 8 -9.72 8 -7 8 C-7 8.33 -7 8.66 -7 9 C-8.98 9 -10.96 9 -13 9 C-13 9.99 -13 10.98 -13 12 C-11.86111328 11.87431641 -11.86111328 11.87431641 -10.69921875 11.74609375 C-9.70535156 11.64425781 -8.71148437 11.54242188 -7.6875 11.4375 C-6.70136719 11.33308594 -5.71523438 11.22867188 -4.69921875 11.12109375 C-2 11 -2 11 1 12 C1 8.7 1 5.4 1 2 C0.34 1.67 -0.32 1.34 -1 1 C-0.67 0.67 -0.34 0.34 0 0 Z " fill="#FCFAF8" transform="translate(34,172)"/>
<path d="M0 0 C2.31 0.66 4.62 1.32 7 2 C7 3.32 7 4.64 7 6 C5.576875 6.3403125 5.576875 6.3403125 4.125 6.6875 C0.80676612 7.69083714 0.80676612 7.69083714 -0.375 10.625 C-0.58125 11.40875 -0.7875 12.1925 -1 13 C-2.32 13 -3.64 13 -5 13 C-5 12.34 -5 11.68 -5 11 C-5.66 10.67 -6.32 10.34 -7 10 C-7 9.01 -7 8.02 -7 7 C-6.360625 6.87625 -5.72125 6.7525 -5.0625 6.625 C-4.381875 6.41875 -3.70125 6.2125 -3 6 C-2.67 5.34 -2.34 4.68 -2 4 C-1.34 4 -0.68 4 0 4 C0 2.68 0 1.36 0 0 Z " fill="#DECB75" transform="translate(711,147)"/>
<path d="M0 0 C2.5625 0.3125 2.5625 0.3125 4.4375 1.5625 C5.5625 3.3125 5.5625 3.3125 5.375 5.375 C4.5625 7.3125 4.5625 7.3125 2.5625 9.3125 C-0.5625 9.4375 -0.5625 9.4375 -3.4375 9.3125 C-4.0625 5.9375 -4.0625 5.9375 -4.4375 2.3125 C-2.4375 0.3125 -2.4375 0.3125 0 0 Z " fill="#F1ECF1" transform="translate(33.4375,274.6875)"/>
<path d="M0 0 C2.31 0 4.62 0 7 0 C7 1.32 7 2.64 7 4 C7.66 4 8.32 4 9 4 C9 3.01 9 2.02 9 1 C11.64 1 14.28 1 17 1 C17 2.32 17 3.64 17 5 C11.06 5 5.12 5 -1 5 C-0.67 3.35 -0.34 1.7 0 0 Z " fill="#6BE4A8" transform="translate(230,352)"/>
<path d="M0 0 C0.99 0.33 1.98 0.66 3 1 C3 1.66 3 2.32 3 3 C3.99 2.67 4.98 2.34 6 2 C10.51454024 1.69724977 14.96199066 1.93364194 19.4375 2.5625 C22.83484329 3.31295411 22.83484329 3.31295411 25 2 C24.67 2.99 24.34 3.98 24 5 C21.47970021 5.22389218 18.96002743 5.42942078 16.4375 5.625 C15.73302734 5.68945312 15.02855469 5.75390625 14.30273438 5.8203125 C9.37705301 6.18349638 5.67412034 5.60922409 1 4 C0.67 2.68 0.34 1.36 0 0 Z " fill="#4D3666" transform="translate(659,64)"/>
<path d="M0 0 C0 3.3 0 6.6 0 10 C0.66 10.33 1.32 10.66 2 11 C0.02 11.99 0.02 11.99 -2 13 C-2.144375 11.88625 -2.28875 10.7725 -2.4375 9.625 C-2.78372035 6.17857953 -2.78372035 6.17857953 -4 4 C-4.66 7.96 -5.32 11.92 -6 16 C-6.66 16 -7.32 16 -8 16 C-8 12.04 -8 8.08 -8 4 C-1.125 0 -1.125 0 0 0 Z " fill="#EBD7E9" transform="translate(694,198)"/>
<path d="M0 0 C0.33 0.66 0.66 1.32 1 2 C3.97 2 6.94 2 10 2 C9.67 3.98 9.34 5.96 9 8 C4.38 8 -0.24 8 -5 8 C-5 7.67 -5 7.34 -5 7 C-3.35 7 -1.7 7 0 7 C0 4.69 0 2.38 0 0 Z " fill="#C7C6C7" transform="translate(708,162)"/>
<path d="M0 0 C3.29714793 0.32971479 4.6226839 0.6226839 7 3 C6.63318342 5.93453261 6.13562754 6.86437246 4 9 C-0.55555556 8.44444444 -0.55555556 8.44444444 -2 7 C-2.1875 4.5625 -2.1875 4.5625 -2 2 C-1.34 1.34 -0.68 0.68 0 0 Z " fill="#A4A3A0" transform="translate(166,49)"/>
<path d="M0 0 C0.66 0.66 1.32 1.32 2 2 C2.5775 1.67 3.155 1.34 3.75 1 C7.09935986 -0.48860438 10.36846444 0 14 0 C13.67 0.66 13.34 1.32 13 2 C13.39938767 4.09821215 13.39938767 4.09821215 14 6 C12.88625 5.7525 12.88625 5.7525 11.75 5.5 C7.91352313 4.80245875 4.71526871 4.93849465 1 6 C0.67 4.02 0.34 2.04 0 0 Z " fill="#636363" transform="translate(159,116)"/>
<path d="M0 0 C2.0625 0.4375 2.0625 0.4375 4 1 C4 1.99 4 2.98 4 4 C4.66 4 5.32 4 6 4 C6.5625 5.9375 6.5625 5.9375 7 8 C6.67 8.33 6.34 8.66 6 9 C4.47480724 8.91062197 2.95318071 8.75462854 1.4375 8.5625 C0.61121094 8.46066406 -0.21507812 8.35882813 -1.06640625 8.25390625 C-1.70449219 8.17011719 -2.34257813 8.08632813 -3 8 C-1.125 1.125 -1.125 1.125 0 0 Z " fill="#CBBED7" transform="translate(588,49)"/>
<path d="M0 0 C1.32 0 2.64 0 4 0 C5.02480469 -0.01740234 5.02480469 -0.01740234 6.0703125 -0.03515625 C11.77777778 -0.11111111 11.77777778 -0.11111111 14 1 C13.67 2.32 13.34 3.64 13 5 C8.71 5 4.42 5 0 5 C-0.33 3.68 -0.66 2.36 -1 1 C-0.67 0.67 -0.34 0.34 0 0 Z " fill="#F8DC8B" transform="translate(230,395)"/>
<path d="M0 0 C0 0.99 0 1.98 0 3 C-0.33 3.33 -0.66 3.66 -1 4 C6.59 4.33 14.18 4.66 22 5 C22 5.33 22 5.66 22 6 C14.41 6 6.82 6 -1 6 C-0.34 7.65 0.32 9.3 1 11 C-1.46800047 9.84826645 -3.04783565 8.95216435 -5 7 C-4.875 5.0625 -4.875 5.0625 -4 3 C-1.9375 1.25 -1.9375 1.25 0 0 Z " fill="#EFEFEF" transform="translate(396,194)"/>
<path d="M0 0 C0.33 0 0.66 0 1 0 C1 3.96 1 7.92 1 12 C-3.62 12 -8.24 12 -13 12 C-13 11.01 -13 10.02 -13 9 C-8.545 8.505 -8.545 8.505 -4 8 C-4 8.66 -4 9.32 -4 10 C-2.68 8.68 -1.36 7.36 0 6 C-0.66 5.67 -1.32 5.34 -2 5 C-1.34 5 -0.68 5 0 5 C0 3.35 0 1.7 0 0 Z " fill="#FCF9F8" transform="translate(34,230)"/>
<path d="M0 0 C1.99954746 -0.04254356 4.00041636 -0.04080783 6 0 C7 1 7 1 7.0625 4.0625 C7.041875 5.031875 7.02125 6.00125 7 7 C6.360625 7.12375 5.72125 7.2475 5.0625 7.375 C4.0415625 7.684375 4.0415625 7.684375 3 8 C2.67 8.66 2.34 9.32 2 10 C-0.09350689 6.5980513 -0.17942163 3.94727588 0 0 Z " fill="#AA6556" transform="translate(697,150)"/>
<path d="M0 0 C2.76593239 4.14889858 3.22415583 7.93776641 2.6875 12.875 C2.460625 13.57625 2.23375 14.2775 2 15 C1.01 15.495 1.01 15.495 0 16 C-1.546875 14.8828125 -1.546875 14.8828125 -3 13 C-2.890625 10.1171875 -2.890625 10.1171875 -2.25 6.875 C-2.04890625 5.79992187 -1.8478125 4.72484375 -1.640625 3.6171875 C-1 1 -1 1 0 0 Z " fill="#26393F" transform="translate(690,201)"/>
<path d="M0 0 C0.928125 0.2784375 0.928125 0.2784375 1.875 0.5625 C4.04160178 1.23686176 4.04160178 1.23686176 6 0 C7.32 0 8.64 0 10 0 C10 1.65 10 3.3 10 5 C6.59437148 5.77842938 3.49234244 6.09978121 0 6 C0 4.02 0 2.04 0 0 Z " fill="#6F6F6F" transform="translate(182,116)"/>
<path d="M0 0 C0.99 0 1.98 0 3 0 C3 0.99 3 1.98 3 3 C3.99 3 4.98 3 6 3 C6 2.01 6 1.02 6 0 C6.66 0 7.32 0 8 0 C8 2.97 8 5.94 8 9 C7.34 9 6.68 9 6 9 C6 7.68 6 6.36 6 5 C5.01 5 4.02 5 3 5 C3 6.32 3 7.64 3 9 C2.01 9 1.02 9 0 9 C0 6.03 0 3.06 0 0 Z " fill="#656464" transform="translate(229,49)"/>
<path d="M0 0 C2.31 0.33 4.62 0.66 7 1 C7 3.64 7 6.28 7 9 C5 9 5 9 3.375 7.5 C2.92125 7.005 2.4675 6.51 2 6 C2 6.99 2 7.98 2 9 C1.34 9 0.68 9 0 9 C0 6.03 0 3.06 0 0 Z " fill="#717170" transform="translate(250,49)"/>
<path d="M0 0 C2.375 -0.125 2.375 -0.125 5 0 C7 2 7 2 7.125 5.625 C7.08375 6.73875 7.0425 7.8525 7 9 C6.01 8.67 5.02 8.34 4 8 C4 7.34 4 6.68 4 6 C3.34 6 2.68 6 2 6 C2 6.99 2 7.98 2 9 C1.34 9 0.68 9 0 9 C0 6.03 0 3.06 0 0 Z " fill="#444342" transform="translate(212,49)"/>
<path d="M0 0 C0.66 0.33 1.32 0.66 2 1 C2.33 1.99 2.66 2.98 3 4 C3.66 2.68 4.32 1.36 5 0 C5.33 0 5.66 0 6 0 C6 2.31 6 4.62 6 7 C4.68 7 3.36 7 2 7 C2 6.34 2 5.68 2 5 C1.0925 5.33 0.185 5.66 -0.75 6 C-4 7 -4 7 -8 7 C-7.67 5.68 -7.34 4.36 -7 3 C-5.02 3.495 -5.02 3.495 -3 4 C-2.01 2.68 -1.02 1.36 0 0 Z " fill="#FEAFAF" transform="translate(631,474)"/>
<path d="M0 0 C5 0 10 0 15 0 C14.67 0.99 14.34 1.98 14 3 C14.66 3.33 15.32 3.66 16 4 C10.06 4 4.12 4 -2 4 C-1.34 2.68 -0.68 1.36 0 0 Z " fill="#B2A3CA" transform="translate(675,117)"/>
<path d="M0 0 C2.5 0.125 2.5 0.125 3.5 1.125 C3.625 3.625 3.625 3.625 3.5 6.125 C3.17 6.455 2.84 6.785 2.5 7.125 C0.16055264 6.83769945 -2.1739143 6.50563221 -4.5 6.125 C-3.43143596 0.1715718 -3.43143596 0.1715718 0 0 Z " fill="#D3C9DD" transform="translate(31.5,473.875)"/>
<path d="M0 0 C1.98 0 3.96 0 6 0 C6 4.29 6 8.58 6 13 C5.01 13 4.02 13 3 13 C3 9.7 3 6.4 3 3 C2.01 3 1.02 3 0 3 C0 2.01 0 1.02 0 0 Z " fill="#E4DFEC" transform="translate(446,193)"/>
<path d="M0 0 C0.99 0.33 1.98 0.66 3 1 C3 5.29 3 9.58 3 14 C2.67 13.01 2.34 12.02 2 11 C0.35 11.33 -1.3 11.66 -3 12 C-2.67 10.68 -2.34 9.36 -2 8 C-2.66 7.67 -3.32 7.34 -4 7 C-3.34 6.5875 -2.68 6.175 -2 5.75 C-1.34 5.1725 -0.68 4.595 0 4 C0 2.68 0 1.36 0 0 Z " fill="#907597" transform="translate(714,210)"/>
<path d="M0 0 C2.23167185 -0.36856864 2.23167185 -0.36856864 4 -1 C4 -0.34 4 0.32 4 1 C-2.15384615 5.06153846 -2.15384615 5.06153846 -6.4375 4.75 C-7.283125 4.5025 -8.12875 4.255 -9 4 C-9 3.01 -9 2.02 -9 1 C-5.57173359 -1.15853811 -3.85937816 -0.86836009 0 0 Z " fill="#3A5861" transform="translate(702,217)"/>
<path d="M0 0 C0.928125 0.2784375 0.928125 0.2784375 1.875 0.5625 C4.04160178 1.23686176 4.04160178 1.23686176 6 0 C6.99 0.33 7.98 0.66 9 1 C8.67 1.33 8.34 1.66 8 2 C8.66 2.33 9.32 2.66 10 3 C10 3.99 10 4.98 10 6 C6.7 6 3.4 6 0 6 C0 4.02 0 2.04 0 0 Z " fill="#7D7D7D" transform="translate(487,116)"/>
<path d="M0 0 C0.66 0.33 1.32 0.66 2 1 C2.5625 3.25 2.5625 3.25 3 6 C3.185625 6.928125 3.37125 7.85625 3.5625 8.8125 C3.7790625 9.8953125 3.7790625 9.8953125 4 11 C3.34 11 2.68 11 2 11 C2 10.34 2 9.68 2 9 C0.35 9 -1.3 9 -3 9 C-3 9.66 -3 10.32 -3 11 C-3.66 11 -4.32 11 -5 11 C-3.77472971 6.94718288 -2.30119506 3.55639236 0 0 Z " fill="#A9A8A6" transform="translate(187,47)"/>
<path d="M0 0 C3 0 3 0 4.6875 1.5 C5.120625 1.995 5.55375 2.49 6 3 C4.68 3.33 3.36 3.66 2 4 C2 4.66 2 5.32 2 6 C-0.64458379 7.32229189 -2.67761301 7.09677194 -5.625 7.0625 C-6.62789062 7.05347656 -7.63078125 7.04445312 -8.6640625 7.03515625 C-9.43492187 7.02355469 -10.20578125 7.01195312 -11 7 C-11 6.67 -11 6.34 -11 6 C-9.39125 5.9071875 -9.39125 5.9071875 -7.75 5.8125 C-3.29080891 4.84634193 -2.57593096 3.58790384 0 0 Z " fill="#E7B421" transform="translate(697,158)"/>
<path d="M0 0 C0.66 0.33 1.32 0.66 2 1 C-0.23545746 6.52289491 -3.40493818 9.44984265 -8 13 C-8 12.34 -8 11.68 -8 11 C-9.65 11.66 -11.3 12.32 -13 13 C-13 11.35 -13 9.7 -13 8 C-12.01 8.33 -11.02 8.66 -10 9 C-7.96726926 8.06833174 -5.96615661 7.0650015 -4 6 C-3.01 5.67 -2.02 5.34 -1 5 C-0.67 3.35 -0.34 1.7 0 0 Z " fill="#EEEBF2" transform="translate(679,71)"/>
<path d="M0 0 C5.625 -0.25 5.625 -0.25 9 2 C9.33 1.34 9.66 0.68 10 0 C10.33 1.32 10.66 2.64 11 4 C6.6835078 4.76173392 3.25566547 5.16063604 -1 4 C-0.67 2.68 -0.34 1.36 0 0 Z " fill="#DCDCDD" transform="translate(324,122)"/>
<path d="M0 0 C0.66 0 1.32 0 2 0 C2.33 1.98 2.66 3.96 3 6 C-1.75 7.125 -1.75 7.125 -4 6 C-4.33 6.66 -4.66 7.32 -5 8 C-5 7.34 -5 6.68 -5 6 C-5.66 6 -6.32 6 -7 6 C-6.67 4.35 -6.34 2.7 -6 1 C-4.68 1.66 -3.36 2.32 -2 3 C-1.34 2.01 -0.68 1.02 0 0 Z " fill="#B7A8CB" transform="translate(84,282)"/>
<path d="M0 0 C4.33333333 0 8.66666667 0 13 0 C12.67 1.32 12.34 2.64 12 4 C8.37 4 4.74 4 1 4 C0.67 2.68 0.34 1.36 0 0 Z " fill="#FD9E88" transform="translate(239,257)"/>
<path d="M0 0 C0.33 0.99 0.66 1.98 1 3 C-0.6396875 2.9071875 -0.6396875 2.9071875 -2.3125 2.8125 C-5.91752611 2.62756763 -5.91752611 2.62756763 -7.8125 4.5 C-8.4003125 5.2425 -8.4003125 5.2425 -9 6 C-9.66 6 -10.32 6 -11 6 C-10.25 1.25 -10.25 1.25 -8 -1 C-4.68968062 -2.32412775 -2.93115148 -2.02148378 0 0 Z " fill="#F6EAB6" transform="translate(709,142)"/>
<path d="M0 0 C0 0.66 0 1.32 0 2 C0.99 1.67 1.98 1.34 3 1 C2.67 2.32 2.34 3.64 2 5 C0.68 5 -0.64 5 -2 5 C-2 4.01 -2 3.02 -2 2 C-2.66 2 -3.32 2 -4 2 C-4.33 2.99 -4.66 3.98 -5 5 C-5 4.01 -5 3.02 -5 2 C-5.61875 2.495 -6.2375 2.99 -6.875 3.5 C-9 5 -9 5 -11 5 C-10.6875 3.0625 -10.6875 3.0625 -10 1 C-6.52674819 -0.1577506 -3.63932552 -0.06866652 0 0 Z " fill="#7880B8" transform="translate(657,106)"/>
<path d="M0 0 C2.31 0 4.62 0 7 0 C7.33 1.65 7.66 3.3 8 5 C5.36 5.33 2.72 5.66 0 6 C0 4.02 0 2.04 0 0 Z " fill="#B5A5C9" transform="translate(92,470)"/>
<path d="M0 0 C4.29 0 8.58 0 13 0 C12.67 1.32 12.34 2.64 12 4 C8.37 4 4.74 4 1 4 C0.67 2.68 0.34 1.36 0 0 Z " fill="#B7EBF3" transform="translate(247,455)"/>
<path d="M0 0 C4.29 0 8.58 0 13 0 C12.67 0.99 12.34 1.98 12 3 C10.7934375 2.9690625 10.7934375 2.9690625 9.5625 2.9375 C7.06645115 2.70366379 7.06645115 2.70366379 6 4 C4.00041636 4.04080783 1.99954746 4.04254356 0 4 C0 2.68 0 1.36 0 0 Z " fill="#F5E2A8" transform="translate(246,406)"/>
<path d="M0 0 C2.64 0 5.28 0 8 0 C8 1.98 8 3.96 8 6 C5.36 6 2.72 6 0 6 C0 4.02 0 2.04 0 0 Z " fill="#AAAAAA" transform="translate(418,116)"/>
<path d="M0 0 C0.99 0 1.98 0 3 0 C3.99 2.97 4.98 5.94 6 9 C5.34 9 4.68 9 4 9 C4 8.34 4 7.68 4 7 C2.35 7 0.7 7 -1 7 C-1 7.66 -1 8.32 -1 9 C-1.66 9 -2.32 9 -3 9 C-2.01 6.03 -1.02 3.06 0 0 Z " fill="#565554" transform="translate(204,49)"/>
<path d="M0 0 C3.96 0 7.92 0 12 0 C11.67 0.99 11.34 1.98 11 3 C9.54263913 3.19491452 8.08405407 3.38069358 6.625 3.5625 C5.81289062 3.66691406 5.00078125 3.77132813 4.1640625 3.87890625 C2 4 2 4 0 3 C0 2.01 0 1.02 0 0 Z " fill="#B3E9F2" transform="translate(229,455)"/>
<path d="M0 0 C1.98 0 3.96 0 6 0 C6.33 0.66 6.66 1.32 7 2 C7.33 1.34 7.66 0.68 8 0 C9.32 0 10.64 0 12 0 C12 1.65 12 3.3 12 5 C10.02 5 8.04 5 6 5 C5.67 3.68 5.34 2.36 5 1 C4.34 1.66 3.68 2.32 3 3 C3.33 3.66 3.66 4.32 4 5 C2.68 5 1.36 5 0 5 C0 3.35 0 1.7 0 0 Z " fill="#474747" transform="translate(397,270)"/>
<path d="M0 0 C2.475 0.495 2.475 0.495 5 1 C6.10844919 4.32534757 5.84454356 6.62182575 5 10 C3.68 10 2.36 10 1 10 C1 9.01 1 8.02 1 7 C1.66 6.67 2.32 6.34 3 6 C2.01 5.34 1.02 4.68 0 4 C0 2.68 0 1.36 0 0 Z " fill="#CBC0D8" transform="translate(29,225)"/>
<path d="M0 0 C0 0.66 0 1.32 0 2 C-0.99 2.33 -1.98 2.66 -3 3 C-3 3.66 -3 4.32 -3 5 C-1.68 4.34 -0.36 3.68 1 3 C1.33 4.32 1.66 5.64 2 7 C-2.455 7.495 -2.455 7.495 -7 8 C-6.4140625 1.84765625 -6.4140625 1.84765625 -6 0 C-3.50907189 -1.24546405 -2.58919267 -0.7767578 0 0 Z " fill="#6A707B" transform="translate(702,200)"/>
<path d="M0 0 C3.5219721 -0.08004482 6.61981469 -0.04005702 10 1 C10 1.99 10 2.98 10 4 C8.5209084 4.16733157 7.04172444 4.33384686 5.5625 4.5 C4.32693359 4.63921875 4.32693359 4.63921875 3.06640625 4.78125 C1 5 1 5 0 5 C0 3.35 0 1.7 0 0 Z " fill="#6FE2EA" transform="translate(249,444)"/>
<path d="M0 0 C3.63 0 7.26 0 11 0 C10.67 1.32 10.34 2.64 10 4 C3.375 4.125 3.375 4.125 0 3 C0 2.01 0 1.02 0 0 Z " fill="#F6E4AF" transform="translate(229,406)"/>
<path d="M0 0 C4.29 0 8.58 0 13 0 C13 1.32 13 2.64 13 4 C11.39125 3.7215625 11.39125 3.7215625 9.75 3.4375 C6.47342551 3.05523298 5.01720996 3.13794001 2 4 C1.01 3.67 0.02 3.34 -1 3 C-0.67 2.01 -0.34 1.02 0 0 Z " fill="#F5C1B4" transform="translate(250,267)"/>
<path d="M0 0 C-5.11262799 4.01706485 -5.11262799 4.01706485 -9.25 3.9375 C-12 3 -12 3 -14 0 C-12.2300132 -0.19532961 -10.45895721 -0.38098882 -8.6875 -0.5625 C-7.70136719 -0.66691406 -6.71523438 -0.77132812 -5.69921875 -0.87890625 C-3 -1 -3 -1 0 0 Z " fill="#D3D2D6" transform="translate(458,221)"/>
<path d="M0 0 C0.144375 0.639375 0.28875 1.27875 0.4375 1.9375 C0.81007181 3.97545146 0.81007181 3.97545146 2 5 C2.04063832 6.66617115 2.042721 8.33388095 2 10 C1.67 9.01 1.34 8.02 1 7 C0.34 7 -0.32 7 -1 7 C-1 7.99 -1 8.98 -1 10 C-2.32 10 -3.64 10 -5 10 C-5.33 8.68 -5.66 7.36 -6 6 C-4.68 5.67 -3.36 5.34 -2 5 C-2.33 4.01 -2.66 3.02 -3 2 C-2.01 1.34 -1.02 0.68 0 0 Z " fill="#BC9EC0" transform="translate(708,213)"/>
<path d="M0 0 C1.98 0 3.96 0 6 0 C5.67 1.65 5.34 3.3 5 5 C4.2575 5.144375 3.515 5.28875 2.75 5.4375 C0.47972261 5.90187492 -1.75759479 6.41863569 -4 7 C-4 8.65 -4 10.3 -4 12 C-4.33 12 -4.66 12 -5 12 C-5.1875 8.625 -5.1875 8.625 -5 5 C-2 3 -2 3 1 3 C0.67 2.01 0.34 1.02 0 0 Z " fill="#3F495B" transform="translate(700,193)"/>
<path d="M0 0 C0.33 0 0.66 0 1 0 C1 3.3 1 6.6 1 10 C3.64 10 6.28 10 9 10 C9 10.99 9 11.98 9 13 C5.7 13 2.4 13 -1 13 C-0.67 8.71 -0.34 4.42 0 0 Z " fill="#46301C" transform="translate(28,119)"/>
<path d="M0 0 C1.2065625 0.0309375 1.2065625 0.0309375 2.4375 0.0625 C2.7675 0.7225 3.0975 1.3825 3.4375 2.0625 C4.4275 1.7325 5.4175 1.4025 6.4375 1.0625 C6.4375 2.0525 6.4375 3.0425 6.4375 4.0625 C1.9825 4.5575 1.9825 4.5575 -2.5625 5.0625 C-2.8925 3.7425 -3.2225 2.4225 -3.5625 1.0625 C-2.5625 0.0625 -2.5625 0.0625 0 0 Z " fill="#F7DA81" transform="translate(262.5625,394.9375)"/>
<path d="M0 0 C2.64 0 5.28 0 8 0 C7.67 1.65 7.34 3.3 7 5 C4.36 5 1.72 5 -1 5 C-0.67 3.35 -0.34 1.7 0 0 Z " fill="#A2A2A2" transform="translate(476,304)"/>
<path d="M0 0 C3.3 0 6.6 0 10 0 C10 1.32 10 2.64 10 4 C6.7 4 3.4 4 0 4 C0 2.68 0 1.36 0 0 Z " fill="#B7BBDE" transform="translate(230,221)"/>
<path d="M0 0 C0.99 0 1.98 0 3 0 C5 3 5 3 4.625 5.6875 C4.41875 6.450625 4.2125 7.21375 4 8 C2.35 7.67 0.7 7.34 -1 7 C-0.67 4.69 -0.34 2.38 0 0 Z " fill="#7C7C7C" transform="translate(176,114)"/>
<path d="M0 0 C0.33 0.66 0.66 1.32 1 2 C1.66 2 2.32 2 3 2 C2.67 3.98 2.34 5.96 2 8 C0.35 8.33 -1.3 8.66 -3 9 C-3.36923077 3.46153846 -3.36923077 3.46153846 -1.5 1.125 C-1.005 0.75375 -0.51 0.3825 0 0 Z " fill="#E9C1B9" transform="translate(665,58)"/>
<path d="M0 0 C1.98 0 3.96 0 6 0 C6 1.98 6 3.96 6 6 C3.69 6 1.38 6 -1 6 C-0.67 4.02 -0.34 2.04 0 0 Z " fill="#485D64" transform="translate(702,163)"/>
<path d="M0 0 C2.31 0 4.62 0 7 0 C7 1.98 7 3.96 7 6 C4.69 6 2.38 6 0 6 C0 4.02 0 2.04 0 0 Z " fill="#DAD9D9" transform="translate(351,122)"/>
<path d="M0 0 C1.2065625 0.0309375 1.2065625 0.0309375 2.4375 0.0625 C3.5625 3.8125 3.5625 3.8125 2.4375 6.0625 C0.7875 6.0625 -0.8625 6.0625 -2.5625 6.0625 C-2.94468767 4.40635343 -3.27645102 2.73792976 -3.5625 1.0625 C-2.5625 0.0625 -2.5625 0.0625 0 0 Z " fill="#C6BAD7" transform="translate(40.5625,49.9375)"/>
<path d="M0 0 C0 1.65 0 3.3 0 5 C-2.64 5 -5.28 5 -8 5 C-7.625 3.0625 -7.625 3.0625 -7 1 C-4.53721199 -0.231394 -2.7204945 -0.07159196 0 0 Z " fill="#EDE8EE" transform="translate(24,475)"/>
<path d="M0 0 C2.31 0 4.62 0 7 0 C7.5625 1.9375 7.5625 1.9375 8 4 C7 5 7 5 3.4375 5.0625 C2.303125 5.041875 1.16875 5.02125 0 5 C0 3.35 0 1.7 0 0 Z " fill="#AEB0C8" transform="translate(634,200)"/>
<path d="M0 0 C2 1 2 1 4 3 C3.625 5.625 3.625 5.625 3 8 C1.35 7.67 -0.3 7.34 -2 7 C-1.125 2.25 -1.125 2.25 0 0 Z " fill="#777777" transform="translate(412,114)"/>
<path d="M0 0 C2.64 1.32 5.28 2.64 8 4 C6.3125 6.0625 6.3125 6.0625 4 8 C1.3125 7.875 1.3125 7.875 -1 7 C-1.33 6.34 -1.66 5.68 -2 5 C-0.68 5 0.64 5 2 5 C1.34 4.67 0.68 4.34 0 4 C0 2.68 0 1.36 0 0 Z " fill="#D9B7D8" transform="translate(687,217)"/>
<path d="M0 0 C2.33333333 0 4.66666667 0 7 0 C7 1.65 7 3.3 7 5 C2.25 6 2.25 6 0 6 C0 4.02 0 2.04 0 0 Z " fill="#686868" transform="translate(471,116)"/>
<path d="M0 0 C3.63 0 7.26 0 11 0 C10.34 1.32 9.68 2.64 9 4 C9 3.01 9 2.02 9 1 C8.34 1 7.68 1 7 1 C7 1.99 7 2.98 7 4 C4.69 4 2.38 4 0 4 C0 2.68 0 1.36 0 0 Z " fill="#B4A5CB" transform="translate(652,117)"/>
<path d="M0 0 C1.65 0 3.3 0 5 0 C5.38218767 1.65614657 5.71395102 3.32457024 6 5 C5 6 5 6 2.4375 6.0625 C1.2309375 6.0315625 1.2309375 6.0315625 0 6 C0 4.02 0 2.04 0 0 Z " fill="#737373" transform="translate(196,116)"/>
<path d="M0 0 C2.31 0 4.62 0 7 0 C7.12375 0.78375 7.2475 1.5675 7.375 2.375 C7.79117993 5.14057822 7.79117993 5.14057822 10 7 C5.61308455 6.49381745 3.15608721 3.86917019 0 1 C0 0.67 0 0.34 0 0 Z " fill="#F2EEF1" transform="translate(20,280)"/>
<path d="M0 0 C2.64 0 5.28 0 8 0 C8 1.32 8 2.64 8 4 C5 4 2 4 -1 4 C-0.67 2.68 -0.34 1.36 0 0 Z " fill="#A1A4BF" transform="translate(635,152)"/>
<path d="M0 0 C1.67542976 0.28604898 3.34385343 0.61781233 5 1 C5 2.65 5 4.3 5 6 C3.35 6 1.7 6 0 6 C-0.38218767 4.34385343 -0.71395102 2.67542976 -1 1 C-0.67 0.67 -0.34 0.34 0 0 Z " fill="#CBC1DB" transform="translate(54,50)"/>
<path d="M0 0 C1.98 0 3.96 0 6 0 C6.33 1.65 6.66 3.3 7 5 C4.69 5 2.38 5 0 5 C0 3.35 0 1.7 0 0 Z " fill="#BDAFCF" transform="translate(57,470)"/>
<path d="M0 0 C1.4540625 0.0309375 1.4540625 0.0309375 2.9375 0.0625 C3.2675 1.7125 3.5975 3.3625 3.9375 5.0625 C1.6275 5.0625 -0.6825 5.0625 -3.0625 5.0625 C-3.625 3.125 -3.625 3.125 -4.0625 1.0625 C-3.0625 0.0625 -3.0625 0.0625 0 0 Z " fill="#A9ACAE" transform="translate(398.0625,427.9375)"/>
<path d="M0 0 C0.99 0.33 1.98 0.66 3 1 C3.99 1 4.98 1 6 1 C5.67 2.65 5.34 4.3 5 6 C3.02 6 1.04 6 -1 6 C-1 2 -1 2 0 0 Z " fill="#ADB0B2" transform="translate(570,384)"/>
<path d="M0 0 C3.33333333 0 6.66666667 0 10 0 C10 1.32 10 2.64 10 4 C6.7 4 3.4 4 0 4 C0 2.68 0 1.36 0 0 Z " fill="#FD9F88" transform="translate(249,305)"/>
<path d="M0 0 C0.99 0 1.98 0 3 0 C3.5625 1.9375 3.5625 1.9375 4 4 C3 5 3 5 1.15234375 5.09765625 C-0.8984375 5.06510417 -2.94921875 5.03255208 -5 5 C-5 3.68 -5 2.36 -5 1 C-3.68 1.33 -2.36 1.66 -1 2 C-0.67 1.34 -0.34 0.68 0 0 Z " fill="#9FA1BD" transform="translate(650,144)"/>
<path d="M0 0 C0.66 0 1.32 0 2 0 C3.6875 1.8125 3.6875 1.8125 5 4 C4.67 4.99 4.34 5.98 4 7 C2.35 7 0.7 7 -1 7 C-1.66 5.35 -2.32 3.7 -3 2 C-2.01 2 -1.02 2 0 2 C0 1.34 0 0.68 0 0 Z " fill="#4E3A27" transform="translate(41,121)"/>
<path d="M0 0 C0.99 0.33 1.98 0.66 3 1 C3 2.65 3 4.3 3 6 C0.69 6 -1.62 6 -4 6 C-2.25 1.125 -2.25 1.125 0 0 Z " fill="#BFC1C3" transform="translate(428,406)"/>
<path d="M0 0 C1.98 0 3.96 0 6 0 C5.125 4.875 5.125 4.875 4 6 C2.33382885 6.04063832 0.66611905 6.042721 -1 6 C-0.67 4.02 -0.34 2.04 0 0 Z " fill="#BFC1C3" transform="translate(570,406)"/>
<path d="M0 0 C0.66 0 1.32 0 2 0 C2.33 0.66 2.66 1.32 3 2 C4.32 1.34 5.64 0.68 7 0 C7.33 1.32 7.66 2.64 8 4 C5.23735711 4.59732819 2.83967231 5 0 5 C0 3.35 0 1.7 0 0 Z " fill="#F7D87D" transform="translate(250,395)"/>
<path d="M0 0 C1.98 0 3.96 0 6 0 C6 1.65 6 3.3 6 5 C4.02 5.33 2.04 5.66 0 6 C0 4.02 0 2.04 0 0 Z " fill="#AE9DC5" transform="translate(59,283)"/>
<path d="M0 0 C2 2 2 2 2.125 5.125 C2.08375 6.07375 2.0425 7.0225 2 8 C-0.4375 7.25 -0.4375 7.25 -3 6 C-3.8125 3.875 -3.8125 3.875 -4 2 C-2.68 1.34 -1.36 0.68 0 0 Z " fill="#F0F2F4" transform="translate(707,201)"/>
<path d="M0 0 C2.97 0.495 2.97 0.495 6 1 C6 2.32 6 3.64 6 5 C4.02 5.33 2.04 5.66 0 6 C0 4.02 0 2.04 0 0 Z " fill="#999FC9" transform="translate(675,106)"/>
<path d="M0 0 C2 3 2 3 2 6 C5.465 5.505 5.465 5.505 9 5 C9.33 5.66 9.66 6.32 10 7 C4.77301732 8.62807657 4.77301732 8.62807657 2 9 C0 7.9375 0 7.9375 -1 6 C-1.25 3.375 -1.25 3.375 -1 1 C-0.67 0.67 -0.34 0.34 0 0 Z " fill="#9984B7" transform="translate(28,278)"/>
<path d="M0 0 C0.99 0.33 1.98 0.66 3 1 C3 2.32 3 3.64 3 5 C1.02 5.66 -0.96 6.32 -3 7 C-3.66 6.34 -4.32 5.68 -5 5 C-3.35 3.35 -1.7 1.7 0 0 Z " fill="#DFD0DA" transform="translate(712,211)"/>
<path d="M0 0 C1.2065625 0.0309375 1.2065625 0.0309375 2.4375 0.0625 C2.1075 1.0525 1.7775 2.0425 1.4375 3.0625 C2.4275 3.3925 3.4175 3.7225 4.4375 4.0625 C4.1075 4.7225 3.7775 5.3825 3.4375 6.0625 C1.7875 6.0625 0.1375 6.0625 -1.5625 6.0625 C-2.2225 4.4125 -2.8825 2.7625 -3.5625 1.0625 C-2.5625 0.0625 -2.5625 0.0625 0 0 Z " fill="#F2EBCF" transform="translate(704.5625,156.9375)"/>
<path d="M0 0 C0.66 0 1.32 0 2 0 C2 1.65 2 3.3 2 5 C1.01 5.33 0.02 5.66 -1 6 C-1.66 5.34 -2.32 4.68 -3 4 C-3.99 4.33 -4.98 4.66 -6 5 C-6 3.68 -6 2.36 -6 1 C-4.7934375 1.0309375 -4.7934375 1.0309375 -3.5625 1.0625 C-1.06645115 1.29633621 -1.06645115 1.29633621 0 0 Z " fill="#AEAEAE" transform="translate(95,124)"/>
<path d="M0 0 C2.64 0 5.28 0 8 0 C8 0.66 8 1.32 8 2 C7.01 2 6.02 2 5 2 C5 4.31 5 6.62 5 9 C4.34 9 3.68 9 3 9 C3 6.69 3 4.38 3 2 C2.01 2 1.02 2 0 2 C0 1.34 0 0.68 0 0 Z " fill="#484747" transform="translate(220,49)"/>
<path d="M0 0 C0.99 0.33 1.98 0.66 3 1 C2.67 2.65 2.34 4.3 2 6 C0.02 6 -1.96 6 -4 6 C-2.25 1.125 -2.25 1.125 0 0 Z " fill="#BABCBE" transform="translate(457,406)"/>
<path d="M0 0 C1.98 0 3.96 0 6 0 C6 1.65 6 3.3 6 5 C3.69 5 1.38 5 -1 5 C-1 4.34 -1 3.68 -1 3 C-0.34 3 0.32 3 1 3 C0.67 2.01 0.34 1.02 0 0 Z " fill="#FDB09D" transform="translate(324,309)"/>
<path d="M0 0 C2.31 0.33 4.62 0.66 7 1 C7 2.65 7 4.3 7 6 C6.01 5.67 5.02 5.34 4 5 C3.01 5.33 2.02 5.66 1 6 C0.67 4.02 0.34 2.04 0 0 Z " fill="#C9C8C7" transform="translate(153,314)"/>
<path d="M0 0 C3.3 0 6.6 0 10 0 C9.01 0.495 9.01 0.495 8 1 C8 1.66 8 2.32 8 3 C8.66 3.33 9.32 3.66 10 4 C7.03 4 4.06 4 1 4 C0.67 2.68 0.34 1.36 0 0 Z " fill="#FD9E87" transform="translate(257,257)"/>
<path d="M0 0 C0.66 0 1.32 0 2 0 C2.33 0.66 2.66 1.32 3 2 C3.99 1.67 4.98 1.34 6 1 C6.33 2.32 6.66 3.64 7 5 C4.69 5.33 2.38 5.66 0 6 C0 4.02 0 2.04 0 0 Z " fill="#8B92C2" transform="translate(687,106)"/>
<path d="M0 0 C2.97 0 5.94 0 9 0 C9 1.32 9 2.64 9 4 C6.36 4 3.72 4 1 4 C0.67 2.68 0.34 1.36 0 0 Z " fill="#97F0C5" transform="translate(247,363)"/>
<path d="M0 0 C0.99 0.33 1.98 0.66 3 1 C3.33 2.65 3.66 4.3 4 6 C3.01 6.495 3.01 6.495 2 7 C1.34 6.01 0.68 5.02 0 4 C-1.32 4.99 -2.64 5.98 -4 7 C-4 4 -4 4 -2 1.8125 C-1.34 1.214375 -0.68 0.61625 0 0 Z " fill="#273E46" transform="translate(700,206)"/>
<path d="M0 0 C1.98 0.495 1.98 0.495 4 1 C3.67 2.65 3.34 4.3 3 6 C1.68 5.67 0.36 5.34 -1 5 C-0.67 3.35 -0.34 1.7 0 0 Z " fill="#BFBEBC" transform="translate(168,453)"/>
<path d="M0 0 C1.98 0.495 1.98 0.495 4 1 C3.67 2.65 3.34 4.3 3 6 C1.68 5.67 0.36 5.34 -1 5 C-0.67 3.35 -0.34 1.7 0 0 Z " fill="#BFBFBD" transform="translate(162,453)"/>
<path d="M0 0 C0.99 0 1.98 0 3 0 C3 1.65 3 3.3 3 5 C1 5 -1 5 -3 5 C-3.33 3.68 -3.66 2.36 -4 1 C-3.01 1.33 -2.02 1.66 -1 2 C-0.67 1.34 -0.34 0.68 0 0 Z " fill="#B4B6B8" transform="translate(428,384)"/>
<path d="M0 0 C1.98 0.495 1.98 0.495 4 1 C3.67 2.65 3.34 4.3 3 6 C1.68 5.67 0.36 5.34 -1 5 C-0.67 3.35 -0.34 1.7 0 0 Z " fill="#BFBEBD" transform="translate(168,314)"/>
<path d="M0 0 C1.98 0.495 1.98 0.495 4 1 C3.67 2.65 3.34 4.3 3 6 C1.68 5.67 0.36 5.34 -1 5 C-0.67 3.35 -0.34 1.7 0 0 Z " fill="#BFBEBD" transform="translate(162,314)"/>
<path d="M0 0 C1.98 0.495 1.98 0.495 4 1 C3.67 2.65 3.34 4.3 3 6 C1.68 5.67 0.36 5.34 -1 5 C-0.67 3.35 -0.34 1.7 0 0 Z " fill="#BFBEBD" transform="translate(168,268)"/>
<path d="M0 0 C1.98 0.495 1.98 0.495 4 1 C3.67 2.65 3.34 4.3 3 6 C1.68 5.67 0.36 5.34 -1 5 C-0.67 3.35 -0.34 1.7 0 0 Z " fill="#BEBEBC" transform="translate(162,268)"/>
<path d="M0 0 C2 3 2 3 3 6 C2.67 6.66 2.34 7.32 2 8 C1.01 8 0.02 8 -1 8 C-1.33 9.32 -1.66 10.64 -2 12 C-1.85962479 10.18706911 -1.71255111 8.3746557 -1.5625 6.5625 C-1.48128906 5.55316406 -1.40007813 4.54382813 -1.31640625 3.50390625 C-1 1 -1 1 0 0 Z " fill="#947285" transform="translate(690,201)"/>
<path d="M0 0 C0 1.98 0 3.96 0 6 C-1.65 6 -3.3 6 -5 6 C-5.33 4.35 -5.66 2.7 -6 1 C-1.125 0 -1.125 0 0 0 Z " fill="#ADAFC7" transform="translate(659,151)"/>
<path d="M0 0 C1.98 0 3.96 0 6 0 C5.67 1.65 5.34 3.3 5 5 C3.35 5 1.7 5 0 5 C0 3.35 0 1.7 0 0 Z " fill="#C9C9C9" transform="translate(688,143)"/>
<path d="M0 0 C2.31 0 4.62 0 7 0 C7 1.32 7 2.64 7 4 C4.69 4 2.38 4 0 4 C0 2.68 0 1.36 0 0 Z " fill="#A0A2BE" transform="translate(655,145)"/>
<path d="M0 0 C2.475 0.495 2.475 0.495 5 1 C5 2.65 5 4.3 5 6 C3.35 6 1.7 6 0 6 C0 4.02 0 2.04 0 0 Z " fill="#585858" transform="translate(404,116)"/>
<path d="M0 0 C2.475 0.495 2.475 0.495 5 1 C5 2.65 5 4.3 5 6 C3.35 6 1.7 6 0 6 C0 4.02 0 2.04 0 0 Z " fill="#595959" transform="translate(147,116)"/>
<path d="M0 0 C0.66 0 1.32 0 2 0 C2 2.31 2 4.62 2 7 C3.32 7 4.64 7 6 7 C6 7.66 6 8.32 6 9 C4.02 9 2.04 9 0 9 C0 6.03 0 3.06 0 0 Z " fill="#A0A09D" transform="translate(175,49)"/>
<path d="M0 0 C0.99 0 1.98 0 3 0 C3.33 1.65 3.66 3.3 4 5 C2.68 5.33 1.36 5.66 0 6 C-0.38218767 4.34385343 -0.71395102 2.67542976 -1 1 C-0.67 0.67 -0.34 0.34 0 0 Z " fill="#BDBDBB" transform="translate(148,453)"/>
<path d="M0 0 C1.98 0 3.96 0 6 0 C6.33 1.32 6.66 2.64 7 4 C6.01 4.33 5.02 4.66 4 5 C4 4.34 4 3.68 4 3 C3.34 3 2.68 3 2 3 C2 3.66 2 4.32 2 5 C1.34 4.67 0.68 4.34 0 4 C0 2.66666667 0 1.33333333 0 0 Z " fill="#A0A4A6" transform="translate(424,428)"/>
<path d="M0 0 C3.3 0 6.6 0 10 0 C9.67 0.99 9.34 1.98 9 3 C7.33388095 3.042721 5.66617115 3.04063832 4 3 C3.67 2.67 3.34 2.34 3 2 C2.67 2.66 2.34 3.32 2 4 C1.34 3.67 0.68 3.34 0 3 C0 2.01 0 1.02 0 0 Z " fill="#FCD662" transform="translate(325,401)"/>
<path d="M0 0 C1.32 0 2.64 0 4 0 C4 0.66 4 1.32 4 2 C4.66 2 5.32 2 6 2 C6 1.34 6 0.68 6 0 C6.99 0.33 7.98 0.66 9 1 C9.33 2.32 9.66 3.64 10 5 C7.03 4.67 4.06 4.34 1 4 C0.67 2.68 0.34 1.36 0 0 Z " fill="#C4C8CD" transform="translate(509,322)"/>
<path d="M0 0 C1.98 0 3.96 0 6 0 C6 1.65 6 3.3 6 5 C5.21625 4.814375 4.4325 4.62875 3.625 4.4375 C1.02910225 3.74037734 1.02910225 3.74037734 -1 5 C-0.67 3.35 -0.34 1.7 0 0 Z " fill="#C0C4C8" transform="translate(481,322)"/>
<path d="M0 0 C0.99 0.33 1.98 0.66 3 1 C3.6875 3.0625 3.6875 3.0625 4 5 C2.35 5.33 0.7 5.66 -1 6 C-1 2 -1 2 0 0 Z " fill="#767676" transform="translate(417,269)"/>
<path d="M0 0 C1.98 0 3.96 0 6 0 C6 1.65 6 3.3 6 5 C4.02 5 2.04 5 0 5 C0 3.35 0 1.7 0 0 Z " fill="#C6BAD5" transform="translate(79,232)"/>
<path d="M0 0 C2.475 0.495 2.475 0.495 5 1 C4.67 2.65 4.34 4.3 4 6 C2.68 6 1.36 6 0 6 C0 4.02 0 2.04 0 0 Z " fill="#4F4F4F" transform="translate(452,116)"/>
<path d="M0 0 C1.32 0 2.64 0 4 0 C3.67 0.66 3.34 1.32 3 2 C3.39938767 4.09821215 3.39938767 4.09821215 4 6 C1.5625 5.625 1.5625 5.625 -1 5 C-1.33 4.34 -1.66 3.68 -2 3 C-1.34 2.01 -0.68 1.02 0 0 Z " fill="#6D6D6D" transform="translate(169,116)"/>
<path d="M0 0 C1.65 0 3.3 0 5 0 C5 1.65 5 3.3 5 5 C3.35 5 1.7 5 0 5 C0 3.35 0 1.7 0 0 Z " fill="#7D7C7B" transform="translate(212,49)"/>
<path d="M0 0 C0.99 0.33 1.98 0.66 3 1 C3 2.32 3 3.64 3 5 C0.69 5 -1.62 5 -4 5 C-2.25 1.125 -2.25 1.125 0 0 Z " fill="#A3A6A8" transform="translate(457,428)"/>
<path d="M0 0 C0.99 0 1.98 0 3 0 C4.125 3.75 4.125 3.75 3 6 C1.68 5.67 0.36 5.34 -1 5 C-0.67 3.35 -0.34 1.7 0 0 Z " fill="#BDBCBA" transform="translate(148,314)"/>
<path d="M0 0 C0.99 0 1.98 0 3 0 C4.125 3.75 4.125 3.75 3 6 C1.68 5.67 0.36 5.34 -1 5 C-0.67 3.35 -0.34 1.7 0 0 Z " fill="#BCBBB9" transform="translate(148,268)"/>
<path d="M0 0 C1.32 0.33 2.64 0.66 4 1 C4.33 2.32 4.66 3.64 5 5 C3.35 5.33 1.7 5.66 0 6 C0 4.02 0 2.04 0 0 Z " fill="#D2D3D7" transform="translate(565,198)"/>
<path d="M0 0 C0.66 0.66 1.32 1.32 2 2 C1.625 4.625 1.625 4.625 1 7 C-0.65 6.67 -2.3 6.34 -4 6 C-2.84826645 3.53199953 -1.95216435 1.95216435 0 0 Z " fill="#DECF88" transform="translate(703,144)"/>
<path d="M0 0 C2.64 0 5.28 0 8 0 C7.01 0.495 7.01 0.495 6 1 C6 1.66 6 2.32 6 3 C6.66 3.33 7.32 3.66 8 4 C5.36 4 2.72 4 0 4 C0 2.68 0 1.36 0 0 Z " fill="#B1A1C9" transform="translate(664,117)"/>
<path d="M0 0 C1.4540625 0.0309375 1.4540625 0.0309375 2.9375 0.0625 C2.6075 1.7125 2.2775 3.3625 1.9375 5.0625 C-1.0625 5.0625 -1.0625 5.0625 -3.0625 4.0625 C-3.3925 3.0725 -3.7225 2.0825 -4.0625 1.0625 C-3.0625 0.0625 -3.0625 0.0625 0 0 Z " fill="#74E2EB" transform="translate(240.0625,443.9375)"/>
<path d="M0 0 C1.4540625 0.0309375 1.4540625 0.0309375 2.9375 0.0625 C2.9375 1.7125 2.9375 3.3625 2.9375 5.0625 C2.6075 4.0725 2.2775 3.0825 1.9375 2.0625 C1.2775 2.7225 0.6175 3.3825 -0.0625 4.0625 C-0.0625 4.7225 -0.0625 5.3825 -0.0625 6.0625 C-1.0525 6.0625 -2.0425 6.0625 -3.0625 6.0625 C-2.7325 4.7425 -2.4025 3.4225 -2.0625 2.0625 C-2.7225 1.7325 -3.3825 1.4025 -4.0625 1.0625 C-3.0625 0.0625 -3.0625 0.0625 0 0 Z " fill="#B0B3B5" transform="translate(398.0625,405.9375)"/>
<path d="M0 0 C2.64 0 5.28 0 8 0 C8 1.32 8 2.64 8 4 C5.36 4 2.72 4 0 4 C0.66 3.67 1.32 3.34 2 3 C2 2.34 2 1.68 2 1 C1.34 0.67 0.68 0.34 0 0 Z " fill="#878DC0" transform="translate(239,211)"/>
<path d="M0 0 C1.65 0 3.3 0 5 0 C4.01 0.66 3.02 1.32 2 2 C2 2.99 2 3.98 2 5 C2.99 5.33 3.98 5.66 5 6 C4.01 6 3.02 6 2 6 C2 6.99 2 7.98 2 9 C1.34 9 0.68 9 0 9 C0 6.03 0 3.06 0 0 Z " fill="#4F4E4D" transform="translate(250,49)"/>
<path d="M0 0 C0.99 0.33 1.98 0.66 3 1 C2.49396008 3.16874252 2.00016187 4.99967627 1 7 C0.01 7 -0.98 7 -2 7 C-1.34 4.69 -0.68 2.38 0 0 Z " fill="#F9F6F5" transform="translate(588,49)"/>
<path d="M0 0 C0.66 0 1.32 0 2 0 C2 0.99 2 1.98 2 3 C2.66 3 3.32 3 4 3 C4 2.01 4 1.02 4 0 C4.66 0 5.32 0 6 0 C5.67 1.65 5.34 3.3 5 5 C4.01 4.67 3.02 4.34 2 4 C2 4.66 2 5.32 2 6 C1.34 6 0.68 6 0 6 C0 4.02 0 2.04 0 0 Z " fill="#FEA9A9" transform="translate(638,475)"/>
<path d="M0 0 C1.65 0 3.3 0 5 0 C5 1.65 5 3.3 5 5 C3.35 5 1.7 5 0 5 C0 3.35 0 1.7 0 0 Z " fill="#C1B4D1" transform="translate(47,470)"/>
<path d="M0 0 C2.475 0.495 2.475 0.495 5 1 C4.67 2.32 4.34 3.64 4 5 C2.68 4.67 1.36 4.34 0 4 C0 2.68 0 1.36 0 0 Z " fill="#BBBAB8" transform="translate(147,407)"/>
<path d="M0 0 C2.475 0.495 2.475 0.495 5 1 C4.67 2.32 4.34 3.64 4 5 C2.68 4.67 1.36 4.34 0 4 C0 2.68 0 1.36 0 0 Z " fill="#BBBAB8" transform="translate(147,361)"/>
<path d="M0 0 C2 1 2 1 3 2 C3.66 1.34 4.32 0.68 5 0 C5.33 1.32 5.66 2.64 6 4 C4.02 4.33 2.04 4.66 0 5 C-0.5625 3.0625 -0.5625 3.0625 -1 1 C-0.67 0.67 -0.34 0.34 0 0 Z " fill="#C6CACD" transform="translate(568,322)"/>
<path d="M0 0 C2.31 0.33 4.62 0.66 7 1 C6.01 2.485 6.01 2.485 5 4 C2.375 4.1875 2.375 4.1875 0 4 C0 2.68 0 1.36 0 0 Z " fill="#F6C2B5" transform="translate(230,315)"/>
<path d="M0 0 C1.65 0 3.3 0 5 0 C5 1.32 5 2.64 5 4 C3.35 4 1.7 4 0 4 C0 2.68 0 1.36 0 0 Z " fill="#FDAE9B" transform="translate(230,305)"/>
<path d="M0 0 C2.475 0.495 2.475 0.495 5 1 C4.67 2.32 4.34 3.64 4 5 C2.68 4.67 1.36 4.34 0 4 C0 2.68 0 1.36 0 0 Z " fill="#BBBAB8" transform="translate(147,222)"/>
<path d="M0 0 C0.99 0.33 1.98 0.66 3 1 C3 3.97 3 6.94 3 10 C2.34 10 1.68 10 1 10 C-0.1577506 6.52674819 -0.06866652 3.63932552 0 0 Z " fill="#DDB0DB" transform="translate(717,213)"/>
<path d="M0 0 C2.475 0.495 2.475 0.495 5 1 C4.67 2.32 4.34 3.64 4 5 C2.68 4.67 1.36 4.34 0 4 C0 2.68 0 1.36 0 0 Z " fill="#BBBAB8" transform="translate(147,176)"/>
<path d="M0 0 C1.98 0 3.96 0 6 0 C6.33 0.99 6.66 1.98 7 3 C4.69 3.33 2.38 3.66 0 4 C0 2.68 0 1.36 0 0 Z " fill="#26343A" transform="translate(697,150)"/>
<path d="M0 0 C2.31 0 4.62 0 7 0 C6.67 1.32 6.34 2.64 6 4 C4.35 4 2.7 4 1 4 C0.67 2.68 0.34 1.36 0 0 Z " fill="#432D19" transform="translate(39,130)"/>
<path d="M0 0 C1.32 0 2.64 0 4 0 C4 1.98 4 3.96 4 6 C2.68 6 1.36 6 0 6 C0 4.02 0 2.04 0 0 Z " fill="#595959" transform="translate(213,116)"/>
<path d="M0 0 C0.66 0 1.32 0 2 0 C2.66 1.98 3.32 3.96 4 6 C2.02 6 0.04 6 -2 6 C-1.34 4.02 -0.68 2.04 0 0 Z " fill="#474747" transform="translate(205,116)"/>
<path d="M0 0 C0.99 0.33 1.98 0.66 3 1 C3 2.65 3 4.3 3 6 C0.525 5.01 0.525 5.01 -2 4 C-1.34 2.68 -0.68 1.36 0 0 Z " fill="#C1C0BE" transform="translate(505,50)"/>
<path d="M0 0 C1.32 0 2.64 0 4 0 C4 1.65 4 3.3 4 5 C2.68 5 1.36 5 0 5 C0 3.35 0 1.7 0 0 Z " fill="#EFEFF0" transform="translate(555,49)"/>
<path d="M0 0 C0.99 0 1.98 0 3 0 C3 2.64 3 5.28 3 8 C2.01 8.495 2.01 8.495 1 9 C0.67 6.03 0.34 3.06 0 0 Z " fill="#C0C0BE" transform="translate(259,49)"/>
<path d="M0 0 C2.31 0 4.62 0 7 0 C6.34 1.32 5.68 2.64 5 4 C5 3.01 5 2.02 5 1 C4.34 1 3.68 1 3 1 C2.67 1.99 2.34 2.98 2 4 C1.01 3.67 0.02 3.34 -1 3 C-0.67 2.01 -0.34 1.02 0 0 Z " fill="#99E2ED" transform="translate(328,449)"/>
<path d="M0 0 C1.98 0.495 1.98 0.495 4 1 C3.67 2.32 3.34 3.64 3 5 C1.68 4.67 0.36 4.34 -1 4 C-0.67 2.68 -0.34 1.36 0 0 Z " fill="#B9B9B6" transform="translate(168,407)"/>
<path d="M0 0 C1.98 0.495 1.98 0.495 4 1 C3.67 2.32 3.34 3.64 3 5 C1.68 4.67 0.36 4.34 -1 4 C-0.67 2.68 -0.34 1.36 0 0 Z " fill="#B8B8B6" transform="translate(162,407)"/>
<path d="M0 0 C1.98 0.495 1.98 0.495 4 1 C3.67 2.32 3.34 3.64 3 5 C1.68 4.67 0.36 4.34 -1 4 C-0.67 2.68 -0.34 1.36 0 0 Z " fill="#B8B8B6" transform="translate(168,361)"/>
<path d="M0 0 C1.98 0.495 1.98 0.495 4 1 C3.67 2.32 3.34 3.64 3 5 C1.68 4.67 0.36 4.34 -1 4 C-0.67 2.68 -0.34 1.36 0 0 Z " fill="#B9B8B6" transform="translate(162,361)"/>
<path d="M0 0 C2.31 0 4.62 0 7 0 C5.68 0.33 4.36 0.66 3 1 C3 1.99 3 2.98 3 4 C1.68 4.33 0.36 4.66 -1 5 C-0.67 3.35 -0.34 1.7 0 0 Z " fill="#8CE9BB" transform="translate(230,352)"/>
<path d="M0 0 C1.98 0 3.96 0 6 0 C6 1.65 6 3.3 6 5 C5.34 4.34 4.68 3.68 4 3 C3.67 3.66 3.34 4.32 3 5 C2.34 5 1.68 5 1 5 C0.67 3.35 0.34 1.7 0 0 Z " fill="#BBACCD" transform="translate(52,283)"/>
<path d="M0 0 C1.98 0.495 1.98 0.495 4 1 C3.67 2.32 3.34 3.64 3 5 C1.68 4.67 0.36 4.34 -1 4 C-0.67 2.68 -0.34 1.36 0 0 Z " fill="#B8B7B5" transform="translate(168,222)"/>
<path d="M0 0 C1.98 0 3.96 0 6 0 C6 1.32 6 2.64 6 4 C4.02 4 2.04 4 0 4 C0 2.68 0 1.36 0 0 Z " fill="#A9ADD8" transform="translate(250,221)"/>
<path d="M0 0 C1.98 0.495 1.98 0.495 4 1 C3.67 2.32 3.34 3.64 3 5 C1.68 4.67 0.36 4.34 -1 4 C-0.67 2.68 -0.34 1.36 0 0 Z " fill="#B8B8B6" transform="translate(162,222)"/>
<path d="M0 0 C1.98 0.495 1.98 0.495 4 1 C3.814375 1.61875 3.62875 2.2375 3.4375 2.875 C2.76313824 5.04160178 2.76313824 5.04160178 4 7 C2.68 7 1.36 7 0 7 C0.66 5.35 1.32 3.7 2 2 C1.01 2.33 0.02 2.66 -1 3 C-0.67 2.01 -0.34 1.02 0 0 Z " fill="#A999C4" transform="translate(635,215)"/>
<path d="M0 0 C1.98 0.495 1.98 0.495 4 1 C3.67 2.32 3.34 3.64 3 5 C1.68 4.67 0.36 4.34 -1 4 C-0.67 2.68 -0.34 1.36 0 0 Z " fill="#B9B8B6" transform="translate(168,176)"/>
<path d="M0 0 C1.98 0.495 1.98 0.495 4 1 C3.67 2.32 3.34 3.64 3 5 C1.68 4.67 0.36 4.34 -1 4 C-0.67 2.68 -0.34 1.36 0 0 Z " fill="#B9B9B6" transform="translate(162,176)"/>
<path d="M0 0 C1.32 0.33 2.64 0.66 4 1 C3.67 2.65 3.34 4.3 3 6 C1.35 6 -0.3 6 -2 6 C-2 5.34 -2 4.68 -2 4 C-1.34 4 -0.68 4 0 4 C0 2.68 0 1.36 0 0 Z " fill="#BEB97D" transform="translate(711,147)"/>
<path d="M0 0 C1.98 0.495 1.98 0.495 4 1 C3.67 2.32 3.34 3.64 3 5 C1.68 5 0.36 5 -1 5 C-0.67 3.35 -0.34 1.7 0 0 Z " fill="#B2B2B2" transform="translate(55,124)"/>
<path d="M0 0 C0.99 0 1.98 0 3 0 C5 3 5 3 4.625 5.6875 C4.41875 6.450625 4.2125 7.21375 4 8 C2.68 7.67 1.36 7.34 0 7 C0.99 7 1.98 7 3 7 C3 5.68 3 4.36 3 3 C2.01 3 1.02 3 0 3 C0 2.01 0 1.02 0 0 Z " fill="#505050" transform="translate(481,114)"/>
<path d="M0 0 C1.32 0.33 2.64 0.66 4 1 C3.67 1.33 3.34 1.66 3 2 C3.66 2.33 4.32 2.66 5 3 C4.67 3.99 4.34 4.98 4 6 C2.68 6 1.36 6 0 6 C0 4.02 0 2.04 0 0 Z " fill="#555555" transform="translate(443,116)"/>
<path d="M0 0 C1.98 0.495 1.98 0.495 4 1 C3.67 2.32 3.34 3.64 3 5 C1.68 4.67 0.36 4.34 -1 4 C-0.67 2.68 -0.34 1.36 0 0 Z " fill="#F5F5F4" transform="translate(167,51)"/>
<path d="M0 0 C0.99 0.33 1.98 0.66 3 1 C3 2.32 3 3.64 3 5 C1.35 4.67 -0.3 4.34 -2 4 C-1.34 2.68 -0.68 1.36 0 0 Z " fill="#C0B2D0" transform="translate(43,470)"/>
<path d="M0 0 C1.98 0 3.96 0 6 0 C5.67 1.32 5.34 2.64 5 4 C3.35 4 1.7 4 0 4 C0 2.68 0 1.36 0 0 Z " fill="#A9E6F0" transform="translate(254,455)"/>
<path d="M0 0 C0.99 0.33 1.98 0.66 3 1 C3 2.32 3 3.64 3 5 C1.35 4.67 -0.3 4.34 -2 4 C-1.34 2.68 -0.68 1.36 0 0 Z " fill="#BFB1D0" transform="translate(48,283)"/>
<path d="M0 0 C2.64 0.33 5.28 0.66 8 1 C8 1.66 8 2.32 8 3 C5.36 3 2.72 3 0 3 C0 2.01 0 1.02 0 0 Z " fill="#B8B189" transform="translate(686,166)"/>
<path d="M0 0 C1.32 0.33 2.64 0.66 4 1 C4 2.65 4 4.3 4 6 C3.01 6 2.02 6 1 6 C1.33 5.01 1.66 4.02 2 3 C1.34 2.67 0.68 2.34 0 2 C-0.33 3.32 -0.66 4.64 -1 6 C-1.33 5.34 -1.66 4.68 -2 4 C-1.0625 1.875 -1.0625 1.875 0 0 Z " fill="#D7D7D8" transform="translate(318,121)"/>
<path d="M0 0 C0.66 0 1.32 0 2 0 C2.66 1.98 3.32 3.96 4 6 C2.02 6 0.04 6 -2 6 C-1.34 4.02 -0.68 2.04 0 0 Z " fill="#414141" transform="translate(438,116)"/>
<path d="M0 0 C2.475 0.495 2.475 0.495 5 1 C4.67 1.99 4.34 2.98 4 4 C3.01 4 2.02 4 1 4 C0.67 4.66 0.34 5.32 0 6 C0 4.02 0 2.04 0 0 Z " fill="#5A5A5A" transform="translate(398,116)"/>
<path d="M0 0 C1.65 0 3.3 0 5 0 C5 1.98 5 3.96 5 6 C3.35 6 1.7 6 0 6 C0 4.02 0 2.04 0 0 Z " fill="#4B4B4B" transform="translate(418,116)"/>
<path d="M0 0 C0.99 0.33 1.98 0.66 3 1 C3 1.66 3 2.32 3 3 C4.65 2.67 6.3 2.34 8 2 C7.67 2.99 7.34 3.98 7 5 C5.35 5 3.7 5 2 5 C1.34 3.35 0.68 1.7 0 0 Z " fill="#57426E" transform="translate(659,64)"/>
<path d="M0 0 C2.35953094 2.35953094 2.49141413 3.77895617 3 7 C2.34 7 1.68 7 1 7 C1 6.34 1 5.68 1 5 C0.01 5 -0.98 5 -2 5 C-2 3.68 -2 2.36 -2 1 C-1.34 0.67 -0.68 0.34 0 0 Z " fill="#B1B0AE" transform="translate(188,51)"/>
<path d="M0 0 C0.99 0 1.98 0 3 0 C3.66 1.32 4.32 2.64 5 4 C3.68 3.67 2.36 3.34 1 3 C1 3.66 1 4.32 1 5 C0.01 5 -0.98 5 -2 5 C-1.34 3.35 -0.68 1.7 0 0 Z " fill="#9EA1A4" transform="translate(484,407)"/>
<path d="M0 0 C0.66 0.33 1.32 0.66 2 1 C1.67 2.65 1.34 4.3 1 6 C-0.65 6 -2.3 6 -4 6 C-4 4.35 -4 2.7 -4 1 C-3.67 1.99 -3.34 2.98 -3 4 C-2.01 3.67 -1.02 3.34 0 3 C0 2.01 0 1.02 0 0 Z " fill="#A3A6A9" transform="translate(574,362)"/>
<path d="M0 0 C1.65 0 3.3 0 5 0 C5.33 1.32 5.66 2.64 6 4 C4.02 4 2.04 4 0 4 C0 2.68 0 1.36 0 0 Z " fill="#50E19A" transform="translate(257,353)"/>
<path d="M0 0 C1.32 0 2.64 0 4 0 C4 1.32 4 2.64 4 4 C2.68 4.33 1.36 4.66 0 5 C-0.5625 3.0625 -0.5625 3.0625 -1 1 C-0.67 0.67 -0.34 0.34 0 0 Z " fill="#CED1D4" transform="translate(393,322)"/>
<path d="M0 0 C1.32 0 2.64 0 4 0 C4 1.65 4 3.3 4 5 C2.68 5 1.36 5 0 5 C0 3.35 0 1.7 0 0 Z " fill="#646464" transform="translate(391,270)"/>
<path d="M0 0 C2.475 0.495 2.475 0.495 5 1 C5 1.99 5 2.98 5 4 C3.35 4 1.7 4 0 4 C0 2.68 0 1.36 0 0 Z " fill="#B8A8CB" transform="translate(29,225)"/>
<path d="M0 0 C0.66 0 1.32 0 2 0 C2.33 1.98 2.66 3.96 3 6 C1.35 6 -0.3 6 -2 6 C-1.34 4.02 -0.68 2.04 0 0 Z " fill="#3A3A3A" transform="translate(249,116)"/>
<path d="M0 0 C1.98 0 3.96 0 6 0 C6 1.32 6 2.64 6 4 C4.02 4 2.04 4 0 4 C0 2.68 0 1.36 0 0 Z " fill="#6FE2EA" transform="translate(229,445)"/>
<path d="M0 0 C0.66 0.33 1.32 0.66 2 1 C1.67 2.65 1.34 4.3 1 6 C0.01 5.67 -0.98 5.34 -2 5 C-1.125 1.125 -1.125 1.125 0 0 Z " fill="#B2B5B7" transform="translate(487,362)"/>
<path d="M0 0 C1.65 0 3.3 0 5 0 C5 1.32 5 2.64 5 4 C3.35 4 1.7 4 0 4 C0 2.68 0 1.36 0 0 Z " fill="#97F0C4" transform="translate(229,363)"/>
<path d="M0 0 C0.99 0.33 1.98 0.66 3 1 C3 1.99 3 2.98 3 4 C0.69 4 -1.62 4 -4 4 C-3.34 3.67 -2.68 3.34 -2 3 C-2 2.34 -2 1.68 -2 1 C-1.34 0.67 -0.68 0.34 0 0 Z " fill="#4DE098" transform="translate(244,353)"/>
<path d="M0 0 C2.475 0.495 2.475 0.495 5 1 C5 1.99 5 2.98 5 4 C3.35 4.33 1.7 4.66 0 5 C0 3.35 0 1.7 0 0 Z " fill="#C0C4C8" transform="translate(427,322)"/>
<path d="M0 0 C1.98 0.495 1.98 0.495 4 1 C4 1.99 4 2.98 4 4 C2.35 4.33 0.7 4.66 -1 5 C-0.67 3.35 -0.34 1.7 0 0 Z " fill="#C3C7CB" transform="translate(398,322)"/>
<path d="M0 0 C1.32 0 2.64 0 4 0 C4 1.65 4 3.3 4 5 C2.68 4.67 1.36 4.34 0 4 C0 2.68 0 1.36 0 0 Z " fill="#C4C8CC" transform="translate(543,322)"/>
<path d="M0 0 C1.65 0 3.3 0 5 0 C5 1.32 5 2.64 5 4 C3.35 4 1.7 4 0 4 C0 2.68 0 1.36 0 0 Z " fill="#F7C6BA" transform="translate(250,315)"/>
<path d="M0 0 C1.2065625 0.0309375 1.2065625 0.0309375 2.4375 0.0625 C1.7775 0.495625 1.1175 0.92875 0.4375 1.375 C-0.2225 1.931875 -0.8825 2.48875 -1.5625 3.0625 C-1.5625 4.0525 -1.5625 5.0425 -1.5625 6.0625 C-2.5525 6.0625 -3.5425 6.0625 -4.5625 6.0625 C-3.48963568 0.08511307 -3.48963568 0.08511307 0 0 Z " fill="#DFD7E5" transform="translate(33.5625,274.9375)"/>
<path d="M0 0 C1.32 0 2.64 0 4 0 C4 1.65 4 3.3 4 5 C2.68 5 1.36 5 0 5 C0 3.35 0 1.7 0 0 Z " fill="#8B8B8B" transform="translate(405,270)"/>
<path d="M0 0 C0.99 0.33 1.98 0.66 3 1 C3 2.32 3 3.64 3 5 C1.68 5 0.36 5 -1 5 C-0.67 3.35 -0.34 1.7 0 0 Z " fill="#FE8080" transform="translate(385,270)"/>
<path d="M0 0 C1.32 0.33 2.64 0.66 4 1 C3.67 2.32 3.34 3.64 3 5 C2.01 5 1.02 5 0 5 C0 3.35 0 1.7 0 0 Z " fill="#C8BBD6" transform="translate(68,232)"/>
<path d="M0 0 C1.2065625 0.0309375 1.2065625 0.0309375 2.4375 0.0625 C2.4375 1.3825 2.4375 2.7025 2.4375 4.0625 C1.1175 4.0625 -0.2025 4.0625 -1.5625 4.0625 C-1.5625 3.4025 -1.5625 2.7425 -1.5625 2.0625 C-2.2225 1.7325 -2.8825 1.4025 -3.5625 1.0625 C-2.5625 0.0625 -2.5625 0.0625 0 0 Z " fill="#B1B5DB" transform="translate(260.5625,220.9375)"/>
<path d="M0 0 C0.33 0.99 0.66 1.98 1 3 C0.34 3 -0.32 3 -1 3 C-1.33 3.99 -1.66 4.98 -2 6 C-2.66 5.67 -3.32 5.34 -4 5 C-3.67 4.01 -3.34 3.02 -3 2 C-3.66 1.67 -4.32 1.34 -5 1 C-3 0 -3 0 0 0 Z " fill="#86858E" transform="translate(715,216)"/>
<path d="M0 0 C1.32 0.33 2.64 0.66 4 1 C3.67 2.32 3.34 3.64 3 5 C2.01 5 1.02 5 0 5 C0 3.35 0 1.7 0 0 Z " fill="#A5A7C1" transform="translate(660,152)"/>
<path d="M0 0 C0.99 0 1.98 0 3 0 C3 1.65 3 3.3 3 5 C1.68 4.67 0.36 4.34 -1 4 C-0.67 2.68 -0.34 1.36 0 0 Z " fill="#F8CC1A" transform="translate(708,146)"/>
<path d="M0 0 C1.32 0 2.64 0 4 0 C4 1.32 4 2.64 4 4 C2.35 3.67 0.7 3.34 -1 3 C-0.67 2.01 -0.34 1.02 0 0 Z " fill="#B0B0B0" transform="translate(480,117)"/>
<path d="M0 0 C0.33 0 0.66 0 1 0 C1.33 2.64 1.66 5.28 2 8 C-0.64 7.67 -3.28 7.34 -6 7 C-6 6.67 -6 6.34 -6 6 C-4.35 6 -2.7 6 -1 6 C-0.67 4.02 -0.34 2.04 0 0 Z " fill="#A887A3" transform="translate(680,60)"/>
<path d="M0 0 C0.99 0.33 1.98 0.66 3 1 C3 2.32 3 3.64 3 5 C1.68 5 0.36 5 -1 5 C-0.67 3.35 -0.34 1.7 0 0 Z " fill="#BCBBB9" transform="translate(484,50)"/>
<path d="M0 0 C0.66 0 1.32 0 2 0 C3.38232443 1.62626404 4.71937515 3.2925002 6 5 C4.02 5 2.04 5 0 5 C-0.5625 3.0625 -0.5625 3.0625 -1 1 C-0.67 0.67 -0.34 0.34 0 0 Z " fill="#F5D060" transform="translate(230,395)"/>
<path d="M0 0 C0.99 0.33 1.98 0.66 3 1 C2.67 2.32 2.34 3.64 2 5 C1.01 5 0.02 5 -1 5 C-0.67 3.35 -0.34 1.7 0 0 Z " fill="#9D9D9D" transform="translate(502,304)"/>
<path d="M0 0 C0.66 0 1.32 0 2 0 C2.33 1.98 2.66 3.96 3 6 C1.68 6 0.36 6 -1 6 C-0.67 4.02 -0.34 2.04 0 0 Z " fill="#CCC0D8" transform="translate(84,282)"/>
<path d="M0 0 C1.32 0 2.64 0 4 0 C4 1.65 4 3.3 4 5 C2.68 5 1.36 5 0 5 C0 3.35 0 1.7 0 0 Z " fill="#D0C5DB" transform="translate(62,232)"/>
<path d="M0 0 C1.32 0.33 2.64 0.66 4 1 C4 2.32 4 3.64 4 5 C2.68 5 1.36 5 0 5 C0 3.35 0 1.7 0 0 Z " fill="#CDC2D9" transform="translate(51,176)"/>
<path d="M0 0 C1.32 0.33 2.64 0.66 4 1 C3.34 2.32 2.68 3.64 2 5 C2.66 5.33 3.32 5.66 4 6 C2.68 6 1.36 6 0 6 C0 4.02 0 2.04 0 0 Z " fill="#3B3B3B" transform="translate(487,116)"/>
<path d="M0 0 C0.66 0.66 1.32 1.32 2 2 C2.99 1.34 3.98 0.68 5 0 C4.34 1.98 3.68 3.96 3 6 C2.34 6 1.68 6 1 6 C0.67 4.02 0.34 2.04 0 0 Z " fill="#414141" transform="translate(464,116)"/>
<path d="M0 0 C1.32 0.33 2.64 0.66 4 1 C3.34 2.32 2.68 3.64 2 5 C2.66 5.33 3.32 5.66 4 6 C2.68 6 1.36 6 0 6 C0 4.02 0 2.04 0 0 Z " fill="#3E3E3E" transform="translate(219,116)"/>
<path d="M0 0 C1.32 0.33 2.64 0.66 4 1 C3.34 2.32 2.68 3.64 2 5 C2.66 5.33 3.32 5.66 4 6 C2.68 6 1.36 6 0 6 C0 4.02 0 2.04 0 0 Z " fill="#404040" transform="translate(458,116)"/>
<path d="M0 0 C1.32 0.33 2.64 0.66 4 1 C3.67 2.32 3.34 3.64 3 5 C2.01 5 1.02 5 0 5 C0 3.35 0 1.7 0 0 Z " fill="#7279B4" transform="translate(667,106)"/>
<path d="M0 0 C1.32 0.33 2.64 0.66 4 1 C4 2.32 4 3.64 4 5 C2.68 5 1.36 5 0 5 C0 3.35 0 1.7 0 0 Z " fill="#B4B3B1" transform="translate(522,50)"/>
</svg>
